<?xml version="1.0" encoding="UTF-8"?><svg xmlns="http://www.w3.org/2000/svg" viewBox="0 0 803 795.62"><defs><style>.d,.e{stroke-width:3px;}.d,.e,.f,.g,.h,.i,.j,.k{stroke-miterlimit:10;}.d,.e,.g,.h,.i,.j,.k,.l{fill:none;}.d,.f,.g,.k,.l{stroke:#010101;}.e,.i{stroke:#9a9999;}.m{fill:#010101;}.n{fill:#fff;}.o{fill:#e52521;}.p{fill:#fdc30b;}.q,.r{fill:#b4b4b4;}.s,.f{fill:#cdcccc;}.g,.h,.i{stroke-width:2px;}.h{stroke:#b4b4b4;}.j{stroke:#67b32e;}.t{opacity:.17;}.r{opacity:.26;}.l{stroke-linecap:round;stroke-linejoin:round;stroke-width:6px;}</style></defs><g id="a"/><g id="b"><g id="c"><g><path class="n" d="M246.87,795.08c1.18,0,2.47,.26,3.52-.07,1.16-.37,2.09-1.28,3.12-1.95-1.06-.65-2.06-1.74-3.19-1.87-2.47-.29-5.04-.27-7.51,0-.97,.11-1.78,1.26-2.67,1.93,.91,.65,1.72,1.6,2.76,1.87,1.22,.33,2.63,.08,3.96,.08Z"/><path d="M246.87,795.08c-1.33,0-2.75,.25-3.96-.08-1.04-.28-1.85-1.22-2.76-1.87,.88-.67,1.7-1.82,2.67-1.93,2.47-.28,5.04-.29,7.51,0,1.14,.13,2.13,1.22,3.19,1.87-1.03,.67-1.97,1.59-3.12,1.95-1.05,.33-2.34,.07-3.52,.07Z"/><g><polyline class="l" points="332.47 792.62 3 792.62 3 408.14 241.58 219.48 332.47 291.36"/><polyline class="l" points="332.47 291.36 480.16 408.14 480.16 792.62 332.47 792.62"/></g><g><path class="p" d="M563.89,93.44c.15,28.42-22.18,48.46-48.46,48.17-27.41-.3-48.03-20.64-48-48.49,.04-28.15,21.02-48.19,48.09-48.39,26.55-.19,48.8,20.15,48.37,48.7Z"/><path class="p" d="M450.97,160.23c5.62-13.22,10.8-25.39,16.2-38.06,7.42,7.31,14.44,14.24,22.03,21.71-12.83,5.49-24.9,10.65-38.23,16.35Z"/><path class="p" d="M450.98,25.39c13.16,5.57,25.21,10.68,38.2,16.18-7.45,7.38-14.46,14.33-21.97,21.78-5.33-12.46-10.51-24.59-16.23-37.96Z"/><path class="p" d="M567.25,122.16c5.36,12.57,10.55,24.76,16.21,38.04-13.16-5.62-25.27-10.8-38.19-16.32,7.5-7.41,14.53-14.37,21.97-21.73Z"/><path class="p" d="M583.43,25.41c-5.67,13.3-10.82,25.36-16.19,37.95-7.41-7.32-14.43-14.25-22-21.74,12.89-5.47,25.01-10.62,38.19-16.21Z"/><path class="p" d="M517.27,185.47c-5.26-13.06-10.16-25.23-15.27-37.93h30.56c-5.02,12.45-10,24.8-15.29,37.93"/><path class="p" d="M517.28,0c5.29,13.16,10.23,25.48,15.29,38.08h-30.54c5.06-12.64,9.95-24.85,15.25-38.08Z"/><path class="p" d="M611.24,93.78c-13.28,5.29-25.44,10.15-37.95,15.13v-30.47c12.58,5.08,24.84,10.04,37.95,15.34"/><path class="p" d="M423.22,93.73c13.14-5.27,25.36-10.17,37.89-15.2v30.4c-12.57-5.04-24.76-9.93-37.89-15.2Z"/></g><path class="n" d="M250.16,793.69c1.18,0,2.47,.26,3.52-.07,1.16-.37,2.09-1.28,3.12-1.95-1.06-.65-2.06-1.74-3.19-1.87-2.47-.29-5.04-.27-7.51,0-.97,.11-1.78,1.26-2.67,1.93,.91,.65,1.72,1.6,2.76,1.87,1.22,.33,2.63,.08,3.96,.08Z"/><path d="M250.16,793.69c-1.33,0-2.75,.25-3.96-.08-1.04-.28-1.85-1.22-2.76-1.87,.88-.67,1.7-1.82,2.67-1.93,2.47-.28,5.04-.29,7.51,0,1.14,.13,2.13,1.22,3.19,1.87-1.03,.67-1.97,1.59-3.12,1.95-1.05,.33-2.34,.07-3.52,.07Z"/><g><rect class="e" x="102.96" y="474.25" width="87.87" height="72.17"/><rect class="i" x="137.57" y="546.91" width="13.89" height="10.63"/><rect class="i" x="181.11" y="546.91" width="13.89" height="10.63"/><rect class="i" x="98.66" y="546.91" width="13.89" height="10.63"/><rect class="d" x="85.23" y="473.92" width="126.9" height="72.5"/></g><g><rect class="i" x="125.27" y="717.02" width="11.39" height="8.72"/><rect class="i" x="57.68" y="717.02" width="11.39" height="8.72"/><rect class="i" x="45.55" y="743.24" width="103.21" height="0"/><rect class="d" x="45.15" y="728.14" width="104.04" height="59.44"/></g><g><g><ellipse class="g" cx="321.13" cy="628.7" rx="18.93" ry="19.75"/><ellipse class="f" cx="312.4" cy="629.92" rx="3.41" ry="3.55"/><ellipse class="f" cx="329.28" cy="629.92" rx="3.41" ry="3.55"/><ellipse class="q" cx="320.87" cy="619.95" rx="1.43" ry="1.49"/></g><rect class="k" x="284.22" y="591.53" width="74.11" height="77.34" rx="10" ry="10"/></g><g><g><ellipse class="g" cx="402.75" cy="632.49" rx="22.08" ry="23.04"/><ellipse class="q" cx="389.06" cy="632.68" rx="1.66" ry="1.74"/><ellipse class="q" cx="415.96" cy="632.68" rx="1.66" ry="1.74"/><rect class="m" x="404.5" y="618.99" width="5.25" height="28.29" transform="translate(814.24 1266.27) rotate(180)"/><rect class="m" x="395.75" y="618.99" width="5.25" height="28.29" transform="translate(796.75 1266.27) rotate(180)"/></g><rect class="k" x="365.16" y="594.25" width="74.11" height="77.34" rx="10" ry="10"/></g><g class="t"><path d="M758.9,337.82c9.29,0,18.03,0,26.78,0,4.7,0,9.41,.05,14.11-.02,1.92-.03,3.5,.22,3.08,2.75-.33,1.97,1.52,5.05-2.66,5.19-5.46,.18-10.92,.75-16.37,1.29-1.29,.13-2.53,.79-3.79,1.21,.11,.35,.22,.7,.33,1.06l2.97,.55v2.76c-1.01,.18-1.98,.36-2.94,.53-.03,.19-.05,.38-.08,.58,.98,.26,1.95,.51,4.03,1.06-1.53,1.46-2.58,2.47-3.78,3.61,.7,.18,1.67,.42,2.64,.67,1.24,3.01-1.61,2.65-3.53,3.83,1.62,.32,2.56,.5,3.48,.68,1.26,3.02-1.45,2.78-3.58,3.86l3.57,.73c1.25,2.97-1.34,2.83-3.67,3.79,1.78,.38,2.7,.57,3.72,.79,.56,1.95,.1,3.11-2.12,3.04-1.04-.03-2.14,.19-3.12-.06-.94-.24-1.77-.96-2.65-1.47,.81-.6,1.63-1.2,2.44-1.8,.22-.16,.42-.34,.48-.39-1.02-.93-1.96-1.79-2.91-2.65,.98-.72,1.96-1.44,2.79-2.05-.88-.77-1.83-1.62-2.79-2.47,.96-.74,1.92-1.49,2.76-2.14-.82-.7-1.79-1.54-2.76-2.38l2.66-2.22c-.73-.72-1.69-1.67-2.64-2.62,.94-.67,1.88-1.33,2.95-2.1-.1-.08-.36-.32-.64-.52-.77-.53-1.55-1.05-2.32-1.58,.71-.58,1.43-1.14,2.11-1.76,.43-.39,.79-.87,1.68-1.87-4.62,.23-8.43,.34-12.23,.62-4.94,.36-9.87,.98-14.81,1.22-2.93,.14-4.43,.97-5.13,4.36-3.12,15.2-6.54,30.33-10.04,45.45-.45,1.96-1.67,3.95-3.03,5.42-5.57,6.06-11.19,12.08-17.09,17.79-2.26,2.19-2.58,4.5-2.31,7.26,.37,3.73,.92,7.45,1.19,11.19,.5,6.88,.76,13.79,1.31,20.67,.74,9.32,1.7,18.62,2.46,27.94,.49,5.99,.78,12,1.16,17.95,23.47,4.14,46.57,8.21,70.1,12.36-2.07,2.98-4.95,.89-7.83,2.41,1.12,.59,1.84,.84,2.4,1.29,.61,.49,1.07,1.18,1.69,1.88-1.64,.68-2.66,1.1-3.89,1.61,1.66,1.09,2.74,1.79,3.81,2.5l-.46,.93c-.97,.18-1.94,.37-3.54,.67,1.63,1.25,2.8,2.14,3.98,3.04l-.39,.94h-7.68c-1.97-3.64,3.15-1.38,2.74-3.87-.98-.42-2.05-.79-3-1.36-.21-.13-.03-.98-.03-1.28,1.25-.52,2.25-.94,3.51-1.46-1.39-1.59-4.57,0-3.39-3.15l3.13-1.32-.28-.91h-59.5c.23,4.95,.38,9.88,.73,14.79,.24,3.42,.91,6.8,1.15,10.21,.51,7.1,.8,14.22,1.3,21.33,.78,11.06,1.65,22.12,2.5,33.17,.61,7.94,1.26,15.88,1.87,23.82,.85,11.06,1.67,22.11,2.52,33.17,.62,8.05,1.2,16.1,1.89,24.14,.78,9.1,1.68,18.19,2.46,27.29,.45,5.25,.82,10.5,1.1,15.76,.03,.65-.72,1.35-1.24,2.26-13.01-17.03-25.47-33.34-38.15-49.93-2.89,3.67-5.84,7.32-8.68,11.05-6.14,8.04-12.24,16.12-18.35,24.19-2.93,3.86-5.78,7.79-8.8,11.58-.66,.83-1.85,1.2-2.8,1.78-.17-1.11-.55-2.23-.48-3.33,.2-3.32,.64-6.63,.87-9.95,.47-6.89,.76-13.79,1.3-20.67,.73-9.32,1.68-18.62,2.45-27.94,.52-6.34,.81-12.7,1.31-19.04,.78-9.97,1.65-19.94,2.46-29.9,.25-3.12,.46-6.24,.66-9.35,.64-9.68,1.23-19.37,1.9-29.05,.57-8.16,1.19-16.32,1.88-24.47,.77-9.1,1.66-18.19,2.47-27.29,.1-1.16,.01-2.34,.01-3.66h-60.01c-.07,.89-.14,1.79-.2,2.66q3.02,.69,3.06,3.4c-.97,.22-1.98,.45-2.99,.67l-.02,.57,2.97,.65c.04,.78,.09,1.62,.15,2.65-1.07,.24-2.09,.47-3.11,.71,0,.19,0,.38-.01,.57,.92,.2,1.84,.4,2.92,.63v3.02c-1.84,0-3.62,.17-5.34-.07-.92-.13-1.75-.97-2.62-1.49,.83-.57,1.63-1.18,2.49-1.7,.33-.2,.77-.19,1.17-.28-1.27-1-2.46-1.94-3.64-2.88,1.2-.71,2.39-1.42,3.36-2-1.05-.79-2.21-1.66-3.37-2.53,1-.69,2-1.37,3.6-2.47l.18-2.28c-1.31,0-2.43,.05-3.54-.01-1.07-.06-2.13-.25-3.19-.38l-.1-1.3c23.07-4.09,46.14-8.18,69.44-12.31,.44-6.51,.81-13.05,1.35-19.59,.76-9.21,1.7-18.41,2.45-27.62,.52-6.34,.83-12.69,1.31-19.04,.34-4.49,.95-8.97,1.13-13.47,.06-1.42-.5-3.27-1.42-4.26-6.02-6.51-12.28-12.78-18.3-19.3-1.27-1.37-2.26-3.32-2.69-5.18-3.47-15.12-6.83-30.26-10.06-45.44-.61-2.87-2.01-4.01-4.62-4.16-7.03-.41-14.06-.84-21.08-1.32-1.64-.11-3.26-.51-4.89-.58-.53-.02-1.08,.6-1.38,1.62,.89,.15,1.78,.3,2.79,.48,1.13,2.86-1.06,3.02-2.85,3.95,.98,.24,1.96,.49,4.07,1.01-1.58,1.49-2.64,2.49-3.84,3.63l2.65,.67c1.22,3-1.58,2.69-3.58,3.83,1.68,.32,2.63,.51,3.53,.68,1.27,3.04-1.48,2.77-3.55,3.87,1.68,.34,2.61,.53,3.54,.72,1.25,2.98-1.37,2.81-3.63,3.8,1.75,.37,2.67,.57,3.69,.78,.56,1.97,.03,3.35-2.12,2.96-2.06-.37-5.52,1.95-5.84-2.95l3.19-.5c-1.28-1.12-2.44-2.14-3.6-3.16,.17-.3,.35-.59,.52-.89l3.04-.52-3.54-3.15,.49-.88,2.97-.62c-1.23-1.09-2.34-2.07-3.46-3.06,.16-.29,.32-.58,.48-.87,1.01-.22,2.02-.44,3.81-.82-2.05-1.07-4.8-.8-3.57-3.9l2.67-.45c-1.03-1.07-1.97-2.04-2.9-3.01,.95-.66,1.91-1.31,3.7-2.54-1.83-.54-3.24-1.19-4.71-1.34-4.92-.53-9.86-1.13-14.79-1.22-2.95-.06-3.24-1.53-3.07-3.89,.09-1.19,.02-2.39,.02-3.96h43.84c-2.97-5.81-5.65-11.18-8.44-16.5-3.84-7.31-7.83-14.53-11.55-21.89-.52-1.03,.1-2.69,.19-4.05,2.02,.36,4.81-.02,5.92,1.23,4.11,4.63,7.68,9.78,11.41,14.77,6.24,8.36,12.42,16.77,18.72,25.08,.53,.7,1.75,1.19,2.66,1.19,28.02,.06,56.03,.11,84.05-.11,1.53-.01,3.34-2.11,4.5-3.66,9.32-12.37,18.51-24.85,27.74-37.29,1-1.35,5.61-2.22,6.53-.99,.51,.69,.54,2.28,.13,3.11-3.05,6.17-6.24,12.26-9.42,18.37-3.5,6.74-7.03,13.47-10.77,20.63Zm-107.11,12.54c6.98,14.57,13.81,28.85,20.66,43.11,.23,.47,.59,.89,.94,1.28,7.58,8.35,15.16,16.69,22.76,25.03,.62,.68,1.35,1.26,2.43,2.26,.76-1.02,1.34-1.94,2.05-2.73,6.83-7.59,13.72-15.12,20.49-22.76,1.52-1.71,2.93-3.64,3.94-5.71,5.18-10.59,10.23-21.25,15.29-31.91,1.3-2.73,2.46-5.53,3.83-8.62-15.44,1.28-30.39,2.52-45.28,3.76v2.48c1.35,.93,2.35,1.62,3.34,2.3l-2.99,2.56c.87,.61,1.99,1.41,3.11,2.21-1.16,.85-2.32,1.71-3.21,2.36,.98,.66,2.06,1.39,3.15,2.13-1.13,.87-2.25,1.74-3.17,2.44,.94,.62,2.02,1.34,3.11,2.05-1.07,.9-2.14,1.8-3.05,2.57,.83,.53,1.91,1.23,3,1.92-1.07,.99-2.13,1.97-3.18,2.95,.12,.05,.42,.13,.68,.27,.88,.5,1.74,1.03,2.61,1.54-.98,.58-1.9,1.44-2.94,1.67-1.3,.29-2.73,.22-4.05-.03-.59-.11-1.27-.98-1.44-1.64-.09-.36,.72-1.19,1.28-1.45,.69-.33,1.54-.29,2.64-.46-1.68-.95-2.85-1.61-4.01-2.27,1.15-.97,2.31-1.94,3.14-2.64-.88-.62-2.02-1.41-3.16-2.21,1.19-.83,2.39-1.65,3.31-2.29-1-.68-2.16-1.46-3.31-2.24l3.35-2.37c-1.01-.65-2.18-1.4-3.35-2.16,1.17-.86,2.34-1.71,3.41-2.5q-2.55-.99,.27-4.4c-.03-.71-.07-1.63-.13-2.83-15.18-1.23-30.18-2.45-45.55-3.69Zm46.27,324.07c1.02-1.7,1.79-3.03,2.61-4.34,8.29-13.33,16.54-26.69,24.95-39.93,1.29-2.02,1.47-3.46,.1-5.35-5.81-8.02-11.56-16.08-17.34-24.12-3.43-4.77-6.87-9.54-10.34-14.35-2.49,3.47-4.76,6.63-7.03,9.79-7.01,9.75-14.03,19.49-21.04,29.24-.99,1.38-1.04,2.51,.04,4.12,3.46,5.15,6.65,10.5,9.93,15.77,5.99,9.63,11.96,19.26,18.11,29.17Zm.02-163.55c-7.46,10.68-14.78,21.07-21.94,31.59-.55,.81-.28,2.78,.3,3.77,7.08,12.04,14.29,24,21.5,36.05,.37-.36,.75-.61,.96-.97,6.91-11.72,13.76-23.47,20.72-35.16,1.1-1.84,.92-3.1-.3-4.82-7.06-9.97-13.99-20.03-21.24-30.46Zm-.04-4.03c1.09-2.52,2.05-4.71,3-6.9,4.48-10.28,8.99-20.54,13.41-30.85,.27-.64,.09-1.82-.33-2.39-1.9-2.53-3.91-4.98-5.97-7.37-3.35-3.89-6.78-7.72-10.21-11.6-.47,.73-.71,1.22-1.05,1.6-4.83,5.49-9.71,10.93-14.44,16.51-.61,.72-.94,2.36-.59,3.22,2.58,6.37,5.37,12.65,8.08,18.97,2.63,6.1,5.25,12.21,8.09,18.81Zm-2.59,171.25h-29.69c3.81,7.73,7.55,15.34,11.59,23.52,6.19-8.05,11.94-15.52,18.11-23.52Zm34.98,.05h-29.63c6.05,7.92,11.9,15.58,17.91,23.45,3.88-7.77,7.7-15.41,11.72-23.45Zm-30.18-3.65h29.73c-5.39-7.49-10.58-14.71-15.91-22.12-4.64,7.42-9.15,14.64-13.82,22.12Zm-18.19-22.12c-5.36,7.48-10.54,14.7-15.83,22.08h29.63c-4.67-7.47-9.13-14.6-13.81-22.08Zm48.7,19.87c-1.1-14.06-2.14-27.38-3.24-41.43-4.35,6.95-8.38,13.4-12.38,19.79,5.15,7.13,10.18,14.1,15.62,21.64Zm-61.48-40.33l-.73-.02c-1.02,13.02-2.03,26.05-3.06,39.27,.58-.23,.83-.24,.93-.38,4.59-6.28,9.2-12.55,13.67-18.92,.44-.62,.33-2.14-.11-2.86-3.49-5.75-7.11-11.41-10.7-17.1Zm-48.76-112.68l-.09,.44h46.34q8.51,0,8.1-9.01c0-.2-.16-.38-.42-.95-17.91,3.16-35.92,6.34-53.93,9.52Zm101.61,.24h53.65l.02-.31c-17.82-3.13-35.65-6.25-53.67-9.42v9.72Zm9.28,162.2l-.64-.08c-3.46,6.87-6.95,13.73-10.31,20.66-.29,.59,.13,1.82,.57,2.49,1.28,1.93,2.73,3.73,4.15,5.56,2.95,3.78,5.92,7.53,9.4,11.95-1.11-14.12-2.14-27.35-3.18-40.57Zm-55.27,21.52c-3.75-7.45-7.31-14.52-10.87-21.59l-.58,.09c-1.01,13.21-2.03,26.41-3.04,39.62l.63,.2c4.61-6.09,9.23-12.19,13.87-18.32Zm9.54-276.91c4.18,6.18,8.16,12.06,12.35,18.24,4.09-5.99,8.13-11.9,12.45-18.24h-24.8Zm24.93,138.85c-3.58,6.07-7,11.86-10.48,17.76h22.87c-4.17-5.98-8.18-11.71-12.4-17.76Zm-25.17,0c-4.33,6.27-8.25,11.94-12.26,17.75h22.79c-3.61-6.08-6.97-11.76-10.53-17.75Zm-12.41,21.35c3.28,6.02,6.41,11.76,9.72,17.84,4.38-6.1,8.49-11.84,12.79-17.84h-22.51Zm27.56,.05c4.39,6.09,8.52,11.83,12.75,17.7,3.35-6.08,6.5-11.8,9.75-17.7h-22.5Zm26.38,36.93c-.94-12.04-1.81-23.23-2.73-35.04-3.26,5.9-6.28,11.29-9.18,16.75-.27,.51,0,1.61,.39,2.16,3.62,5.16,7.32,10.26,11.53,16.13Zm-55.09-34.99c-.94,11.92-1.81,22.91-2.68,33.91,4.15-4.83,7.78-9.74,11.19-14.8,.54-.81,.57-2.56,.1-3.46-2.57-4.97-5.36-9.81-8.61-15.65Zm.6-9.07l.59,.25c3.55-5.16,7.11-10.31,10.6-15.52,.3-.45,.28-1.46,0-1.96-2.69-4.69-5.46-9.33-8.63-14.68-.9,11.25-1.72,21.57-2.55,31.9Zm48.64-32.09c-3.05,5.25-5.72,9.7-8.2,14.28-.45,.83-.49,2.41-.01,3.17,2.06,3.3,4.38,6.41,6.59,9.6,1.07,1.54,2.11,3.1,3.17,4.66l.8-.4c-.76-10.12-1.51-20.24-2.34-31.32Zm-32.75-58.09c-3.45,6.44-6.61,12.35-9.93,18.55h17.97c-2.67-6.15-5.22-12.05-8.04-18.55Zm19.35-.03c-2.81,6.51-5.36,12.4-8.04,18.62h17.93c-3.29-6.2-6.43-12.11-9.89-18.62Zm-29.22,21.48c2.5,4.92,4.85,9.55,7.34,14.47,3.39-4.95,6.55-9.56,9.91-14.47h-17.26Zm39.03,.14h-17.2c3.46,4.94,6.63,9.48,9.95,14.22,2.49-4.88,4.82-9.44,7.26-14.22Zm-.41-8.05l.55-.23c-.75-9.85-1.49-19.7-2.24-29.54-2.42,4.16-4.27,8.41-5.99,12.72-.29,.74-.31,1.89,.04,2.58,2.47,4.87,5.07,9.66,7.64,14.48Zm-36.37-30.91c-.79,10.59-1.51,20.36-2.24,30.12l.78,.18c2.59-4.79,5.19-9.58,7.74-14.4,.2-.38,.26-1.03,.09-1.42-1.99-4.62-4.05-9.22-6.38-14.49Zm19.83-27.57h12.72c-.49-5.4-.97-10.6-1.51-16.55-3.94,5.82-7.44,10.98-11.21,16.55Zm-4.99,.07c-3.8-5.59-7.33-10.77-10.86-15.96l-.68,.11c-.35,5.24-.71,10.48-1.07,15.85h12.61Zm23.03,69.89l-.56-.25c-1.5,2.96-2.64,6.22-4.6,8.8-2.3,3.01-1.63,5.14,.43,7.69,2.24,2.77,4.24,5.76,6.57,8.97-.64-8.8-1.24-17-1.84-25.2Zm-43.06,25.4c3-4.17,5.56-7.61,7.98-11.15,.48-.7,.87-2,.57-2.64-1.98-4.13-4.16-8.16-6.47-12.61-.7,8.91-1.36,17.25-2.08,26.4Zm25.02-91.93c4.75,5.49,9.06,10.47,13.98,16.17-.29-5.46-.44-9.94-.84-14.4-.06-.65-1.3-1.65-2.04-1.69-3.51-.18-7.02-.08-11.1-.08Zm-19.21,16.39c4.65-5.42,9.1-10.61,13.87-16.18h-12.59c-.43,5.4-.84,10.59-1.28,16.18Zm20.27-42.36c.29,.37,.58,.73,.87,1.1,2.5,0,5.01-.1,7.5,.03,1.8,.09,2.46-.94,2.51-2.47,.1-2.97,.03-5.95,.03-7.5-3.28,2.66-7.1,5.75-10.92,8.84Zm-17.76,.84h10.45c-3.51-3.98-6.75-7.66-10.45-11.85v11.85Zm29.7-1.54c3.46-3.66,6.33-6.69,9.39-9.93-2.68-.86-5.42-1.74-8.63-2.77-.25,4.12-.48,8.03-.76,12.7Zm-31.98-12.5c-2.94,.85-5.64,1.62-8.23,2.36,3.05,3.2,5.99,6.29,9,9.45-.25-3.82-.51-7.72-.78-11.81Zm34.19-1.65c3.16,.83,6.09,1.6,9.24,2.43-.29-4.3-.53-7.96-.79-11.74-2.9,3.19-5.59,6.16-8.45,9.31Zm-43.86-8.92c-.33,3.99-.61,7.46-.93,11.46,3.46-.96,6.37-1.77,9.3-2.58-2.78-2.95-5.39-5.72-8.36-8.87Zm24.82-47.07v-9.18c-3.56,2.86-6.79,5.46-10.29,8.28,3.6,.32,6.81,.6,10.29,.91Zm-31.85,33.58c-.93,5.21-1.72,9.59-2.55,14.24,7.56-3.24,7.72-3.65,4.42-10.52-.45-.95-.94-1.88-1.87-3.72Zm17.38-34.73v-8.5c-3.69,2.54-7.13,4.91-10.89,7.49,3.81,.35,7.22,.67,10.89,1Zm31.8-8.45v8.5c3.54-.37,6.79-.71,10.67-1.12-3.88-2.68-7.16-4.95-10.67-7.38Zm-4.47,8.68c-3.58-2.89-6.69-5.4-10.02-8.09v9.04c3.26-.31,6.3-.6,10.02-.95Zm21.62,34.7c-1.79,3.68-3.24,6.69-4.72,9.75,2.42,1.56,4.78,3.09,7.3,4.72-.85-4.78-1.65-9.27-2.58-14.46Zm23.75-46.92c-.83-3.02-1.62-5.92-2.56-9.33-2.33,3.19-4.43,6.06-6.82,9.33h9.38Zm-60.98,3.51h-10.05v8.17c3.36-2.73,6.44-5.23,10.05-8.17Zm-50.25-12.75c-.95,3.26-1.8,6.15-2.65,9.07h9.28c-2.25-3.08-4.27-5.84-6.63-9.07Zm91.12,67.17c1.25-5.59,2.31-10.33,3.39-15.13-5.18-.06-5.58,.32-4.98,5.06,.39,3.06,.95,6.09,1.59,10.07Zm-74.01-1.71l.54-.04c.73-3.61,1.51-7.21,2.13-10.84,.1-.57-.36-1.7-.78-1.84-1.48-.49-3.05-.66-4.93-1.01,1.1,4.95,2.07,9.34,3.05,13.72Zm95.64-57.8c2.01-3.86,3.74-7.2,5.77-11.12-3.14,.65-5.74,1.19-8.51,1.77,.97,3.32,1.79,6.1,2.74,9.35Zm-122.62-11.12c2.11,4.03,3.8,7.28,5.76,11.02,1-3.32,1.84-6.11,2.82-9.34l-8.57-1.68Zm68.06,16.15c3.54,2.81,6.58,5.21,9.83,7.79v-7.79h-9.83Zm62.08-27.07l-.66-.27c-2.42,3.29-4.84,6.58-7.43,10.1,7.74,.09,8.13-.3,8.09-7.6,0-.74,0-1.48,0-2.23Zm-37.46,92.68c1.95-1.75,4.09-3.66,6.42-5.76-2.5-1.61-4.68-3.02-7.2-4.65,.3,4,.56,7.47,.78,10.41Zm-93.97-93.12c-1.09,9.29,.99,11.88,7.41,9.83-2.38-3.16-4.78-6.34-7.41-9.83Zm31.65,86.69c1.91,2.48,3.66,4.76,5.75,7.48v-11.32c-2.15,1.44-4.26,2.85-5.75,3.84Zm63.34-59.11h-9.95c3.58,2.48,6.65,4.61,9.95,6.89v-6.89Zm-49.11,0h-9.58v6.56c3.28-2.25,6.24-4.27,9.58-6.56Zm-20.99,6.28c3.58,.34,6.29,.6,9.07,.87v-7.18c-2.94,2.05-5.61,3.91-9.07,6.31Zm81.09,.07c-3.3-2.31-5.93-4.15-8.81-6.16v6.99c2.86-.27,5.46-.51,8.81-.83Zm-94.08-1.42c.07,.28,.13,.57,.2,.85h8.14v-6.03c-2.99,1.86-5.66,3.52-8.34,5.18Zm10.03-4.98v5.99c2.91-2.06,5.46-3.86,8.47-5.99h-8.47Zm88.88,5.64h7.99c-1.15-1.52-2.38-2.38-3.66-3.17-1.36-.84-2.77-1.61-4.33-2.51v5.67Zm27.98-39.03c-6.42,2.23-6.8,2.92-5.73,10.81,2.01-3.79,3.84-7.24,5.73-10.81Zm-38.36,33.4c3.09,2.06,5.58,3.73,8.21,5.48v-5.48h-8.21Zm-102.87-23.31c.53-8,1.08-8.48-4.9-9.12,1.62,3.02,3.17,5.91,4.9,9.12Zm125.55,28.3v-4.97h-7.91c2.89,1.82,5.28,3.32,7.91,4.97Zm-115.13-.12c2.65-1.63,5.09-3.14,7.87-4.85h-7.87v4.85Zm-1.54-5.28c-2.49,1.57-4.67,2.95-7.29,4.6,2.88,.35,5.05,.61,7.29,.87v-5.47Zm125.03,4.82c.04-.18,.09-.35,.13-.53-2.23-1.32-4.47-2.64-6.85-4.04v5.39c1.32-.31,2.38-.66,3.46-.79,1.07-.13,2.17-.03,3.26-.03Zm-105.7,24.98q-1.02,6.96,3.97,8.23c-1.32-2.74-2.57-5.32-3.97-8.23Zm75.58,8.32q5.09-1.44,3.91-7.93c-1.38,2.79-2.57,5.2-3.91,7.93Zm42.44-79.54c-.39-.36-.78-.73-1.17-1.09l-5.94,7.71c.34,.3,.67,.59,1.01,.89l6.1-7.5Zm-155.31-1c.61,5.08,1.55,6.25,5.85,7.63-2.09-2.73-3.97-5.18-5.85-7.63Zm141.56,42.81l-.1,.58c1.83,1.05,3.66,2.1,5.71,3.27v-3.86h-5.61Zm-134.57,3.79c2.1-1.24,3.89-2.3,6.44-3.81h-6.44v3.81Zm148.03-.16c-2.46-1.46-4.28-2.53-6.26-3.71v3.71h6.26Zm-150.14-3.57c-2.02,1.29-3.55,2.26-5.48,3.5h5.48v-3.5Zm29.83,29.8l1.38-.3c-.69-2.6-1.37-5.19-2.06-7.79l-1.01,.27c.57,2.61,1.13,5.22,1.7,7.83Zm86.36-7.89l-.98-.25-2.1,8.72,1.11,.29c.66-2.92,1.32-5.84,1.98-8.76Z"/><path class="n" d="M651.78,350.36c15.37,1.25,30.37,2.46,45.55,3.69,.06,1.2,.1,2.12,.13,2.83q-2.83,3.4-.27,4.4c-1.08,.79-2.24,1.65-3.41,2.5,1.17,.75,2.34,1.51,3.35,2.16-.98,.69-2.17,1.53-3.35,2.37,1.15,.78,2.3,1.56,3.31,2.24-.92,.64-2.12,1.46-3.31,2.29,1.14,.8,2.28,1.6,3.16,2.21-.83,.7-1.99,1.67-3.14,2.64,1.16,.66,2.33,1.32,4.01,2.27-1.1,.17-1.95,.13-2.64,.46-.56,.26-1.37,1.09-1.28,1.45,.16,.66,.85,1.53,1.44,1.64,1.32,.25,2.75,.31,4.05,.03,1.05-.23,1.97-1.09,2.94-1.67-.87-.52-1.74-1.04-2.61-1.54-.26-.15-.56-.23-.68-.27,1.05-.97,2.12-1.96,3.18-2.95-1.08-.69-2.16-1.39-3-1.92,.91-.77,1.98-1.67,3.05-2.57-1.08-.72-2.17-1.43-3.11-2.05,.91-.7,2.04-1.57,3.17-2.44l-3.15-2.13c.89-.65,2.05-1.51,3.21-2.36-1.12-.8-2.25-1.6-3.11-2.21l2.99-2.56c-.99-.68-1.99-1.37-3.34-2.3v-2.48c14.89-1.24,29.84-2.48,45.28-3.76-1.37,3.09-2.53,5.89-3.83,8.62-5.06,10.65-10.11,21.31-15.29,31.91-1.01,2.07-2.42,4-3.94,5.71-6.78,7.64-13.67,15.17-20.49,22.76-.71,.79-1.29,1.71-2.05,2.73-1.08-1-1.81-1.58-2.43-2.26-7.6-8.33-15.18-16.68-22.76-25.03-.35-.39-.71-.81-.94-1.28-6.85-14.27-13.68-28.54-20.66-43.11Z"/><path class="n" d="M698.05,674.43c-6.15-9.91-12.13-19.55-18.11-29.17-3.28-5.28-6.47-10.62-9.93-15.77-1.08-1.61-1.03-2.73-.04-4.12,7.01-9.75,14.03-19.49,21.04-29.24,2.27-3.16,4.54-6.33,7.03-9.79,3.47,4.81,6.91,9.58,10.34,14.35,5.78,8.04,11.53,16.1,17.34,24.12,1.37,1.89,1.19,3.33-.1,5.35-8.42,13.24-16.66,26.6-24.95,39.93-.81,1.31-1.59,2.65-2.61,4.34Z"/><path class="n" d="M698.07,510.88c7.25,10.43,14.18,20.5,21.24,30.46,1.22,1.72,1.4,2.98,.3,4.82-6.96,11.69-13.82,23.44-20.72,35.16-.21,.36-.59,.6-.96,.97-7.21-12.04-14.42-24-21.5-36.05-.58-.99-.85-2.97-.3-3.77,7.15-10.52,14.48-20.92,21.94-31.59Z"/><path class="n" d="M698.02,506.85c-2.84-6.61-5.46-12.71-8.09-18.81-2.72-6.31-5.5-12.59-8.08-18.97-.35-.86-.03-2.5,.59-3.22,4.73-5.58,9.62-11.01,14.44-16.51,.34-.39,.57-.87,1.05-1.6,3.43,3.89,6.85,7.71,10.21,11.6,2.06,2.39,4.07,4.84,5.97,7.37,.42,.56,.61,1.75,.33,2.39-4.42,10.31-8.92,20.57-13.41,30.85-.96,2.19-1.91,4.39-3,6.9Z"/><path class="n" d="M695.43,678.1c-6.16,8.01-11.91,15.48-18.11,23.52-4.03-8.19-7.78-15.79-11.59-23.52h29.69Z"/><path class="n" d="M730.42,678.15c-4.01,8.03-7.83,15.67-11.72,23.45-6.01-7.87-11.86-15.53-17.91-23.45h29.63Z"/><path class="n" d="M700.23,674.5c4.67-7.48,9.18-14.69,13.82-22.12,5.33,7.41,10.53,14.63,15.91,22.12h-29.73Z"/><path class="n" d="M682.04,652.38c4.68,7.49,9.13,14.61,13.81,22.08h-29.63c5.29-7.38,10.46-14.6,15.83-22.08Z"/><path class="n" d="M730.74,672.25c-5.44-7.54-10.47-14.51-15.62-21.64,4-6.39,8.03-12.84,12.38-19.79,1.1,14.04,2.14,27.37,3.24,41.43Z"/><path class="n" d="M669.27,631.92c3.58,5.69,7.21,11.34,10.7,17.1,.44,.72,.54,2.24,.11,2.86-4.47,6.37-9.08,12.64-13.67,18.92-.1,.14-.35,.15-.93,.38,1.03-13.23,2.05-26.25,3.06-39.27l.73,.02Z"/><path class="n" d="M620.51,519.24c18.01-3.18,36.02-6.36,53.93-9.52,.26,.57,.41,.76,.42,.95q.41,9.01-8.1,9.01h-46.34l.09-.44Z"/><path class="n" d="M722.12,519.48v-9.72c18.02,3.16,35.84,6.29,53.67,9.42l-.02,.31h-53.65Z"/><path class="n" d="M731.4,681.68c1.04,13.22,2.07,26.45,3.18,40.57-3.48-4.42-6.45-8.17-9.4-11.95-1.42-1.82-2.87-3.63-4.15-5.56-.45-.67-.86-1.89-.57-2.49,3.36-6.93,6.85-13.78,10.31-20.66l.64,.08Z"/><path class="n" d="M676.13,703.2c-4.64,6.13-9.25,12.22-13.87,18.32l-.63-.2c1.01-13.21,2.03-26.41,3.04-39.62l.58-.09c3.56,7.07,7.12,14.14,10.87,21.59Z"/><path class="n" d="M685.67,426.29h24.8c-4.33,6.34-8.37,12.25-12.45,18.24-4.18-6.18-8.16-12.06-12.35-18.24Z"/><path class="n" d="M710.61,565.14c4.22,6.04,8.22,11.78,12.4,17.76h-22.87c3.48-5.89,6.89-11.68,10.48-17.76Z"/><path class="n" d="M685.44,565.13c3.56,6,6.92,11.67,10.53,17.75h-22.79c4.01-5.81,7.93-11.48,12.26-17.75Z"/><path class="n" d="M673.03,586.48h22.51c-4.3,5.99-8.41,11.73-12.79,17.84-3.31-6.07-6.44-11.82-9.72-17.84Z"/><path class="n" d="M700.6,586.53h22.5c-3.25,5.91-6.4,11.62-9.75,17.7-4.23-5.87-8.36-11.61-12.75-17.7Z"/><path class="n" d="M726.98,623.45c-4.21-5.87-7.91-10.97-11.53-16.13-.39-.55-.66-1.66-.39-2.16,2.9-5.46,5.93-10.85,9.18-16.75,.92,11.81,1.8,23.01,2.73,35.04Z"/><path class="n" d="M671.89,588.46c3.25,5.84,6.04,10.68,8.61,15.65,.47,.9,.45,2.65-.1,3.46-3.41,5.06-7.03,9.97-11.19,14.8,.87-10.99,1.74-21.99,2.68-33.91Z"/><path class="n" d="M672.48,579.39c.83-10.32,1.65-20.64,2.55-31.9,3.16,5.35,5.94,9.99,8.63,14.68,.28,.49,.31,1.51,0,1.96-3.48,5.21-7.05,10.35-10.6,15.52l-.59-.25Z"/><path class="n" d="M721.12,547.3c.83,11.08,1.59,21.2,2.34,31.32l-.8,.4c-1.05-1.55-2.1-3.12-3.17-4.66-2.21-3.19-4.54-6.31-6.59-9.6-.47-.76-.43-2.35,.01-3.17,2.48-4.57,5.15-9.03,8.2-14.28Z"/><path class="n" d="M688.37,489.22c2.82,6.51,5.38,12.4,8.04,18.55h-17.97c3.32-6.21,6.48-12.11,9.93-18.55Z"/><path class="n" d="M707.72,489.19c3.45,6.51,6.6,12.43,9.89,18.62h-17.93c2.69-6.22,5.23-12.11,8.04-18.62Z"/><path class="n" d="M678.5,510.67h17.26c-3.36,4.91-6.52,9.51-9.91,14.47-2.5-4.92-4.85-9.55-7.34-14.47Z"/><path class="n" d="M717.52,510.81c-2.44,4.78-4.77,9.34-7.26,14.22-3.32-4.74-6.49-9.28-9.95-14.22h17.2Z"/><path class="n" d="M717.12,502.76c-2.56-4.82-5.16-9.61-7.64-14.48-.35-.69-.34-1.84-.04-2.58,1.72-4.31,3.57-8.56,5.99-12.72,.75,9.85,1.49,19.7,2.24,29.54l-.55,.23Z"/><path class="n" d="M680.75,471.85c2.33,5.27,4.38,9.86,6.38,14.49,.17,.39,.11,1.04-.09,1.42-2.55,4.81-5.15,9.6-7.74,14.4l-.78-.18c.73-9.77,1.45-19.54,2.24-30.12Z"/><path class="n" d="M700.58,444.29c3.77-5.57,7.27-10.74,11.21-16.55,.54,5.95,1.02,11.15,1.51,16.55h-12.72Z"/><path class="n" d="M695.59,444.36h-12.61c.36-5.37,.72-10.61,1.07-15.85l.68-.11c3.53,5.19,7.06,10.37,10.86,15.96Z"/><path class="n" d="M718.62,514.25c.6,8.2,1.2,16.41,1.84,25.2-2.33-3.21-4.33-6.19-6.57-8.97-2.06-2.55-2.72-4.67-.43-7.69,1.96-2.58,3.1-5.84,4.6-8.8l.56,.25Z"/><path class="n" d="M675.56,539.65c.72-9.15,1.38-17.49,2.08-26.4,2.31,4.45,4.49,8.48,6.47,12.61,.31,.64-.09,1.94-.57,2.64-2.42,3.54-4.97,6.99-7.98,11.15Z"/><path class="n" d="M700.57,447.72c4.08,0,7.6-.1,11.1,.08,.73,.04,1.98,1.04,2.04,1.69,.41,4.46,.56,8.94,.84,14.4-4.93-5.7-9.23-10.68-13.98-16.17Z"/><path class="n" d="M681.37,464.11c.44-5.59,.85-10.77,1.28-16.18h12.59c-4.78,5.57-9.22,10.75-13.87,16.18Z"/><path class="n" d="M701.63,421.76c3.82-3.09,7.63-6.18,10.92-8.84,0,1.54,.07,4.52-.03,7.5-.05,1.53-.72,2.56-2.51,2.47-2.49-.13-5-.03-7.5-.03-.29-.37-.58-.73-.87-1.1Z"/><path class="n" d="M683.88,422.6v-11.85c3.7,4.19,6.94,7.87,10.45,11.85h-10.45Z"/><path class="n" d="M713.58,421.06c.28-4.67,.51-8.58,.76-12.7,3.22,1.03,5.95,1.91,8.63,2.77-3.06,3.23-5.93,6.27-9.39,9.93Z"/><path class="n" d="M681.6,408.55c.27,4.1,.53,8,.78,11.81-3.01-3.16-5.95-6.25-9-9.45,2.59-.74,5.29-1.52,8.23-2.36Z"/><path class="n" d="M715.79,406.9c2.86-3.15,5.55-6.12,8.45-9.31,.25,3.78,.5,7.44,.79,11.74-3.15-.83-6.08-1.6-9.24-2.43Z"/><path class="n" d="M671.93,397.98c2.97,3.16,5.58,5.92,8.36,8.87-2.93,.81-5.84,1.62-9.3,2.58,.33-4,.61-7.47,.93-11.46Z"/><path class="n" d="M696.75,350.91c-3.48-.31-6.69-.59-10.29-.91,3.5-2.81,6.73-5.42,10.29-8.28v9.18Z"/><path class="n" d="M664.9,384.48c.93,1.85,1.41,2.78,1.87,3.72,3.3,6.87,3.14,7.28-4.42,10.52,.83-4.65,1.62-9.03,2.55-14.24Z"/><path class="n" d="M682.28,349.75c-3.66-.34-7.08-.65-10.89-1,3.75-2.58,7.19-4.95,10.89-7.49v8.5Z"/><path class="n" d="M714.08,341.29c3.51,2.43,6.79,4.7,10.67,7.38-3.88,.41-7.13,.75-10.67,1.12v-8.5Z"/><path class="n" d="M709.61,349.98c-3.72,.35-6.76,.64-10.02,.95v-9.04c3.32,2.68,6.43,5.2,10.02,8.09Z"/><path class="n" d="M731.23,384.68c.93,5.19,1.73,9.69,2.58,14.46-2.52-1.63-4.88-3.16-7.3-4.72,1.48-3.05,2.94-6.06,4.72-9.75Z"/><path class="n" d="M754.98,337.75h-9.38c2.38-3.26,4.49-6.13,6.82-9.33,.94,3.41,1.73,6.31,2.56,9.33Z"/><path class="n" d="M694,341.27c-3.61,2.93-6.7,5.44-10.05,8.17v-8.17h10.05Z"/><path class="n" d="M643.75,328.52c2.36,3.23,4.38,5.99,6.63,9.07h-9.28c.85-2.92,1.69-5.8,2.65-9.07Z"/><path class="n" d="M734.87,395.69c-.64-3.98-1.2-7.01-1.59-10.07-.61-4.74-.21-5.12,4.98-5.06-1.08,4.8-2.14,9.54-3.39,15.13Z"/><path class="n" d="M660.85,393.99c-.97-4.39-1.95-8.77-3.05-13.72,1.88,.35,3.45,.52,4.93,1.01,.42,.14,.88,1.27,.78,1.84-.63,3.63-1.4,7.23-2.13,10.84l-.54,.04Z"/><path class="n" d="M756.49,336.19c-.95-3.25-1.77-6.03-2.74-9.35,2.77-.58,5.36-1.12,8.51-1.77-2.03,3.92-3.77,7.26-5.77,11.12Z"/><path class="n" d="M633.87,325.07l8.57,1.68c-.97,3.23-1.82,6.03-2.82,9.34-1.95-3.74-3.65-6.99-5.76-11.02Z"/><path class="n" d="M701.93,341.21h9.83v7.79c-3.25-2.58-6.28-4.98-9.83-7.79Z"/><path class="n" d="M764,314.15c0,.74,0,1.48,0,2.23,.04,7.3-.35,7.69-8.09,7.6,2.59-3.52,5.01-6.81,7.43-10.1l.66,.27Z"/><path class="n" d="M726.54,406.83c-.22-2.94-.48-6.41-.78-10.41,2.52,1.63,4.71,3.04,7.2,4.65-2.34,2.09-4.47,4.01-6.42,5.76Z"/><path class="n" d="M632.57,313.71c2.63,3.49,5.03,6.67,7.41,9.83-6.42,2.04-8.5-.55-7.41-9.83Z"/><path class="n" d="M664.22,400.41c1.49-1,3.6-2.41,5.75-3.84v11.32c-2.09-2.72-3.84-4.99-5.75-7.48Z"/><path class="n" d="M727.56,341.3v6.89c-3.3-2.29-6.37-4.41-9.95-6.89h9.95Z"/><path class="n" d="M678.45,341.3c-3.35,2.29-6.3,4.32-9.58,6.56v-6.56h9.58Z"/><path class="n" d="M657.46,347.58c3.45-2.4,6.12-4.26,9.07-6.31v7.18c-2.77-.26-5.48-.52-9.07-.87Z"/><path class="n" d="M738.55,347.65c-3.36,.32-5.95,.56-8.81,.83v-6.99c2.88,2.01,5.51,3.85,8.81,6.16Z"/><path class="n" d="M644.47,346.23c2.67-1.66,5.35-3.32,8.34-5.18v6.03h-8.14c-.07-.28-.13-.57-.2-.85Z"/><path class="n" d="M654.5,341.25h8.47c-3.01,2.13-5.56,3.93-8.47,5.99v-5.99Z"/><path class="n" d="M743.38,346.89v-5.67c1.56,.9,2.97,1.67,4.33,2.51,1.27,.78,2.5,1.64,3.66,3.17h-7.99Z"/><path class="n" d="M771.36,307.86c-1.9,3.57-3.72,7.02-5.73,10.81-1.06-7.89-.68-8.58,5.73-10.81Z"/><path class="n" d="M732.99,341.26h8.21v5.48c-2.63-1.76-5.12-3.42-8.21-5.48Z"/><path class="n" d="M630.12,317.96c-1.72-3.21-3.28-6.1-4.9-9.12,5.98,.63,5.43,1.11,4.9,9.12Z"/><path class="n" d="M755.66,346.25c-2.62-1.65-5.01-3.15-7.91-4.97h7.91v4.97Z"/><path class="n" d="M640.54,346.13v-4.85h7.87c-2.78,1.72-5.22,3.22-7.87,4.85Z"/><path class="n" d="M638.99,340.85v5.47c-2.24-.27-4.41-.53-7.29-.87,2.62-1.65,4.8-3.03,7.29-4.6Z"/><path class="n" d="M764.02,345.68c-1.09,0-2.18-.1-3.26,.03-1.08,.13-2.14,.48-3.46,.79v-5.39c2.38,1.41,4.62,2.72,6.85,4.04-.04,.18-.09,.35-.13,.53Z"/><path class="n" d="M658.32,370.65c1.4,2.9,2.65,5.49,3.97,8.23q-5-1.26-3.97-8.23Z"/><path class="n" d="M733.9,378.98c1.35-2.73,2.53-5.14,3.91-7.93q1.18,6.49-3.91,7.93Z"/><path class="n" d="M776.33,299.43l-6.1,7.5c-.34-.3-.67-.59-1.01-.89l5.94-7.71c.39,.36,.78,.73,1.17,1.09Z"/><path class="n" d="M621.02,298.44c1.88,2.45,3.76,4.91,5.85,7.63-4.29-1.38-5.24-2.55-5.85-7.63Z"/><path class="n" d="M762.58,341.24h5.61v3.86c-2.05-1.18-3.88-2.22-5.71-3.27l.1-.58Z"/><path class="n" d="M628.01,345.04v-3.81h6.44c-2.55,1.51-4.34,2.57-6.44,3.81Z"/><path class="n" d="M776.04,344.88h-6.26v-3.71c1.98,1.17,3.8,2.25,6.26,3.71Z"/><path class="n" d="M625.9,341.3v3.5h-5.48c1.94-1.24,3.46-2.21,5.48-3.5Z"/><path class="n" d="M655.73,371.11c-.57-2.61-1.13-5.22-1.7-7.83l1.01-.27c.69,2.6,1.37,5.19,2.06,7.79l-1.38,.3Z"/><path class="n" d="M742.1,363.21c-.66,2.92-1.32,5.84-1.98,8.76l-1.11-.29,2.1-8.72,.98,.25Z"/></g><g><rect class="h" x="515.02" y="702.07" width="110.66" height="55.83"/><rect class="h" x="532.05" y="757.86" width="76.59" height="32.03"/><rect class="s" x="564.4" y="713.05" width="11.89" height="34.36"/><rect class="s" x="546.57" y="713.05" width="11.89" height="34.36"/><rect class="s" x="528.28" y="713.05" width="11.89" height="34.36"/><rect class="s" x="583.15" y="713.05" width="11.89" height="34.36"/><rect class="s" x="602.36" y="713.05" width="11.89" height="34.36"/></g><polygon class="o" points="467.65 378.6 265.93 219.97 272.74 210.54 474.46 369.17 467.65 378.6"/><path class="p" d="M388.19,282.81l79.35-100.06c1.25-1.58,1.04-3.91-.47-5.22h0c-1.51-1.31-3.75-1.09-5,.49l-79.35,100.06c-1.25,1.58-1.04,3.91,.47,5.22h0c1.51,1.31,3.75,1.09,5-.49Z"/><path class="p" d="M262.53,433.98l79.35-100.06c1.25-1.58,1.04-3.91-.47-5.22h0c-1.51-1.31-3.75-1.09-5,.49l-79.35,100.06c-1.25,1.58-1.04,3.91,.47,5.22h0c1.51,1.31,3.75,1.09,5-.49Z"/><rect class="p" x="187.77" y="566.1" width="2.03" height="167.4"/><rect class="p" x="298.39" y="620.77" width="2.12" height="223.35" transform="translate(-432.99 1031.89) rotate(-90)"/><g><path class="p" d="M244.67,425.92l3.61,21.36c.3,1.75,1.89,2.91,3.57,2.61h0c1.67-.31,2.79-1.97,2.5-3.72l-3.61-21.36c-.3-1.75-1.89-2.91-3.57-2.61h0c-1.67,.31-2.79,1.97-2.5,3.72Z"/><path class="p" d="M252.6,449.45l19.53-7.42c1.6-.61,2.42-2.45,1.84-4.12h0c-.58-1.67-2.35-2.53-3.95-1.92l-19.53,7.42c-1.6,.61-2.42,2.45-1.84,4.12h0c.58,1.67,2.35,2.53,3.95,1.92Z"/></g><polygon class="p" points="309.07 682.33 307.31 681.27 278.6 733.17 280.36 734.23 309.07 682.33"/><polygon class="p" points="393.66 681.72 391.9 680.66 363.19 732.57 364.95 733.63 393.66 681.72"/><rect class="n" x="260.87" y="733.5" width="140.1" height="10.6"/><path class="r" d="M691.67,677.31h0c-.78-.85-2.06-.87-2.87-.07l-58.68,58.6c-.81,.81-.84,2.15-.06,3h0c.78,.85,2.06,.87,2.87,.07l58.68-58.6c.81-.81,.84-2.15,.06-3Z"/><path class="p" d="M405.07,295.76l79.35-100.06c1.25-1.58,1.04-3.91-.47-5.22h0c-1.51-1.31-3.75-1.09-5,.49l-79.35,100.06c-1.25,1.58-1.04,3.91,.47,5.22h0c1.51,1.31,3.75,1.09,5-.49Z"/><path class="p" d="M370.55,270.33l79.35-100.06c1.25-1.58,1.04-3.91-.47-5.22h0c-1.51-1.31-3.75-1.09-5,.49l-79.35,100.06c-1.25,1.58-1.04,3.91,.47,5.22h0c1.51,1.31,3.75,1.09,5-.49Z"/><rect class="o" x="103.35" y="567.42" width="5.66" height="123.95" rx="1" ry="1" transform="translate(212.36 1258.79) rotate(180)"/><g><path class="o" d="M94.45,691.86l9.03,13.92c.49,.75,1.47,.95,2.2,.44l1.03-.73c.72-.51,.91-1.54,.42-2.29l-9.03-13.92c-.49-.75-1.47-.95-2.2-.44l-1.03,.73c-.72,.51-.91,1.54-.42,2.29Z"/><path class="o" d="M106.11,705.79l11.57-11.7c.63-.63,.64-1.68,.04-2.33l-.86-.93c-.61-.65-1.61-.67-2.24-.04l-11.57,11.7c-.63,.63-.64,1.68-.04,2.33l.86,.93c.61,.65,1.61,.67,2.24,.04Z"/></g><rect class="q" x="461.78" y="690.74" width="4.24" height="84.09" transform="translate(1196.69 268.89) rotate(90)"/><rect class="n" x="491.67" y="730.96" width="12.71" height="3.66" transform="translate(1230.81 234.77) rotate(90)"/><rect class="n" x="481.92" y="728.84" width="12.71" height="3.66" transform="translate(1218.94 242.4) rotate(90)"/><rect class="m" x="472.17" y="730.96" width="12.71" height="3.66" transform="translate(1211.31 254.27) rotate(90)"/><rect class="n" x="462.42" y="728.84" width="12.71" height="3.66" transform="translate(1199.44 261.9) rotate(90)"/><rect class="n" x="452.67" y="728.84" width="12.71" height="3.66" transform="translate(1189.69 271.65) rotate(90)"/><rect class="n" x="442.92" y="726.72" width="12.71" height="3.66" transform="translate(1177.82 279.28) rotate(90)"/><rect class="n" x="433.17" y="730.96" width="12.71" height="3.66" transform="translate(1172.31 293.27) rotate(90)"/><rect class="n" x="423.42" y="728.84" width="12.71" height="3.66" transform="translate(1160.44 300.9) rotate(90)"/><rect class="j" x="125.03" y="752.8" width="8.89" height="24.74"/><rect class="j" x="104.73" y="752.8" width="8.89" height="24.74"/><rect class="j" x="82.39" y="752.8" width="8.89" height="24.74"/><rect class="j" x="62.09" y="752.8" width="8.89" height="24.74"/></g></g></g></svg>