<?xml version="1.0" encoding="UTF-8"?><svg xmlns="http://www.w3.org/2000/svg" viewBox="0 0 798.91 751.41"><defs><style>.d,.e{stroke-width:3px;}.d,.e,.f,.g,.h,.i,.j,.k,.l{stroke-miterlimit:10;}.d,.e,.h,.i,.j,.k,.l,.m{fill:none;}.d,.f,.g,.h,.l,.m{stroke:#010101;}.e,.j{stroke:#9a9999;}.n{fill:#010101;}.o{fill:#fff;}.p{fill:#e52521;}.q{fill:#fdc30b;}.r{fill:#b4b4b4;}.s,.g,.t{fill:#cdcccc;}.f{fill:#ebebeb;stroke-width:.5px;}.h,.i,.j{stroke-width:2px;}.i{stroke:#b4b4b4;}.k{stroke:#67b32e;}.u{opacity:.17;}.t{opacity:.26;}.m{stroke-linecap:round;stroke-linejoin:round;stroke-width:6px;}</style></defs><g id="a"/><g id="b"><g id="c"><g><rect class="p" x="102.16" y="540.44" width="5.63" height="122.99" rx="1" ry="1"/><g><path class="p" d="M116.64,539.95l-8.98-13.81c-.49-.75-1.47-.95-2.19-.44l-1.02,.72c-.72,.51-.91,1.53-.42,2.27l8.98,13.81c.49,.75,1.47,.95,2.19,.44l1.02-.72c.72-.51,.91-1.53,.42-2.27Z"/><path class="p" d="M105.04,526.13l-11.51,11.61c-.62,.63-.64,1.67-.03,2.32l.86,.92c.6,.65,1.6,.67,2.23,.04l11.51-11.61c.62-.63,.64-1.67,.03-2.32l-.86-.92c-.6-.65-1.6-.67-2.23-.04Z"/></g><g><polyline class="m" points="330.79 748.41 3 748.41 3 366.9 240.36 179.7 330.79 251.02"/><polyline class="m" points="330.79 251.02 477.72 366.9 477.72 748.41 330.79 748.41"/></g><path class="o" d="M248.9,749.47c1.18,0,2.46,.26,3.5-.07,1.15-.36,2.08-1.27,3.11-1.94-1.05-.65-2.04-1.72-3.17-1.85-2.46-.28-5.01-.27-7.47,0-.96,.11-1.77,1.25-2.65,1.91,.91,.65,1.71,1.58,2.75,1.86,1.21,.33,2.62,.08,3.94,.08Z"/><path d="M248.9,749.47c-1.32,0-2.73,.25-3.94-.08-1.03-.28-1.84-1.21-2.75-1.86,.88-.67,1.69-1.81,2.65-1.91,2.46-.28,5.01-.29,7.47,0,1.13,.13,2.12,1.21,3.17,1.85-1.03,.67-1.96,1.58-3.11,1.94-1.04,.33-2.32,.07-3.5,.07Z"/><g><rect class="e" x="102.45" y="432.5" width="87.42" height="71.62"/><rect class="j" x="136.88" y="504.59" width="13.82" height="10.55"/><rect class="j" x="180.2" y="504.59" width="13.82" height="10.55"/><rect class="j" x="98.18" y="504.59" width="13.82" height="10.55"/><rect class="d" x="84.81" y="432.17" width="126.25" height="71.94"/></g><g><rect class="j" x="124.65" y="673.4" width="11.33" height="8.65"/><rect class="j" x="57.4" y="673.4" width="11.33" height="8.65"/><rect class="j" x="45.33" y="699.42" width="102.68" height="0"/><rect class="d" x="44.93" y="684.43" width="103.51" height="58.98"/></g><g><g><ellipse class="h" cx="319.5" cy="585.76" rx="18.83" ry="19.6"/><ellipse class="g" cx="310.81" cy="586.97" rx="3.39" ry="3.53"/><ellipse class="g" cx="327.61" cy="586.97" rx="3.39" ry="3.53"/><ellipse class="r" cx="319.24" cy="577.08" rx="1.42" ry="1.48"/></g><rect class="l" x="282.78" y="548.87" width="73.73" height="76.75" rx="10" ry="10"/></g><g><g><ellipse class="h" cx="400.7" cy="589.52" rx="21.97" ry="22.87"/><ellipse class="r" cx="387.08" cy="589.7" rx="1.65" ry="1.72"/><ellipse class="r" cx="413.85" cy="589.7" rx="1.65" ry="1.72"/><rect class="n" x="402.44" y="576.12" width="5.22" height="28.07" transform="translate(810.1 1180.31) rotate(180)"/><rect class="n" x="393.74" y="576.12" width="5.22" height="28.07" transform="translate(792.7 1180.31) rotate(180)"/></g><rect class="l" x="363.31" y="551.57" width="73.73" height="76.75" rx="10" ry="10"/></g><g class="u"><path d="M755.03,297.12c9.24,0,17.94,0,26.64,0,4.68,0,9.36,.05,14.04-.02,1.91-.03,3.48,.21,3.06,2.73-.32,1.96,1.52,5.01-2.65,5.15-5.44,.18-10.86,.75-16.28,1.28-1.28,.13-2.52,.79-3.77,1.2,.11,.35,.22,.7,.32,1.05l2.95,.55v2.74c-1.01,.18-1.97,.35-2.92,.53-.03,.19-.05,.38-.08,.57,.97,.25,1.94,.51,4.01,1.05-1.52,1.45-2.57,2.45-3.76,3.58,.7,.18,1.66,.42,2.63,.67,1.24,2.98-1.6,2.63-3.51,3.8,1.61,.31,2.55,.5,3.46,.68,1.25,3-1.44,2.76-3.56,3.83l3.55,.72c1.24,2.95-1.33,2.81-3.65,3.76,1.77,.37,2.69,.57,3.71,.78,.56,1.94,.1,3.09-2.11,3.02-1.04-.03-2.13,.19-3.11-.06-.94-.24-1.76-.95-2.64-1.46,.81-.6,1.62-1.19,2.42-1.79,.22-.16,.42-.34,.48-.39-1.01-.92-1.95-1.78-2.89-2.63,.97-.71,1.95-1.43,2.77-2.03-.87-.77-1.82-1.61-2.78-2.45,.95-.74,1.91-1.48,2.74-2.12-.81-.7-1.78-1.53-2.75-2.36l2.65-2.2c-.73-.72-1.68-1.66-2.63-2.6,.93-.66,1.87-1.32,2.94-2.08-.1-.08-.36-.32-.64-.51-.76-.53-1.54-1.04-2.31-1.56,.7-.58,1.43-1.14,2.1-1.75,.43-.39,.79-.86,1.67-1.85-4.6,.23-8.39,.34-12.16,.61-4.92,.36-9.82,.98-14.74,1.21-2.91,.14-4.41,.96-5.1,4.33-3.11,15.08-6.51,30.1-9.98,45.1-.45,1.95-1.66,3.92-3.02,5.38-5.54,6.01-11.14,11.98-17,17.65-2.25,2.17-2.57,4.46-2.3,7.2,.37,3.7,.91,7.39,1.19,11.1,.5,6.83,.76,13.68,1.3,20.51,.73,9.25,1.69,18.48,2.44,27.73,.48,5.94,.78,11.9,1.15,17.81,23.35,4.11,46.33,8.15,69.74,12.26-2.06,2.96-4.92,.89-7.79,2.39,1.12,.58,1.83,.83,2.39,1.28,.61,.49,1.07,1.17,1.68,1.87-1.63,.67-2.65,1.09-3.87,1.59,1.65,1.08,2.72,1.78,3.79,2.48l-.46,.92c-.96,.18-1.93,.37-3.53,.67,1.62,1.24,2.79,2.13,3.96,3.01l-.39,.93h-7.64c-1.96-3.61,3.13-1.37,2.73-3.84-.98-.42-2.04-.78-2.99-1.35-.21-.13-.03-.97-.03-1.27,1.24-.52,2.24-.93,3.49-1.45-1.39-1.58-4.54,0-3.38-3.13l3.11-1.31-.28-.91h-59.2c.23,4.91,.37,9.8,.72,14.67,.24,3.39,.9,6.75,1.14,10.14,.51,7.05,.8,14.11,1.29,21.16,.78,10.98,1.64,21.95,2.49,32.92,.61,7.88,1.25,15.75,1.86,23.63,.85,10.97,1.67,21.94,2.51,32.92,.61,7.99,1.2,15.98,1.88,23.96,.77,9.03,1.67,18.05,2.45,27.08,.45,5.21,.82,10.42,1.1,15.64,.03,.65-.72,1.34-1.23,2.24-12.94-16.9-25.34-33.08-37.95-49.54-2.88,3.65-5.81,7.26-8.64,10.96-6.11,7.98-12.18,16-18.25,24.01-2.91,3.83-5.75,7.73-8.75,11.49-.66,.82-1.84,1.19-2.78,1.76-.17-1.1-.55-2.22-.48-3.3,.2-3.3,.64-6.58,.86-9.88,.46-6.83,.75-13.68,1.29-20.51,.73-9.25,1.68-18.48,2.43-27.73,.51-6.29,.81-12.6,1.3-18.89,.77-9.89,1.64-19.78,2.45-29.67,.25-3.09,.45-6.19,.66-9.28,.63-9.61,1.22-19.22,1.89-28.82,.57-8.1,1.18-16.19,1.87-24.28,.77-9.03,1.66-18.05,2.46-27.07,.1-1.15,.01-2.32,.01-3.63h-59.71c-.07,.88-.13,1.77-.2,2.64q3,.69,3.04,3.38c-.97,.22-1.97,.44-2.98,.67l-.02,.57,2.95,.65c.04,.77,.09,1.61,.15,2.63-1.07,.24-2.08,.47-3.09,.7,0,.19,0,.38-.01,.57,.91,.2,1.83,.39,2.91,.62v3c-1.83,0-3.6,.17-5.31-.07-.92-.13-1.74-.96-2.6-1.48,.82-.57,1.62-1.17,2.47-1.69,.33-.2,.76-.19,1.16-.28-1.26-1-2.44-1.93-3.62-2.85,1.19-.7,2.38-1.41,3.35-1.98-1.05-.78-2.2-1.65-3.35-2.51,1-.68,1.99-1.36,3.59-2.45l.18-2.26c-1.3,0-2.42,.05-3.53-.01-1.06-.06-2.12-.25-3.18-.38l-.1-1.29c22.95-4.06,45.91-8.11,69.09-12.21,.44-6.45,.81-12.95,1.34-19.44,.75-9.14,1.69-18.26,2.44-27.4,.52-6.29,.82-12.6,1.3-18.89,.34-4.46,.94-8.9,1.12-13.37,.06-1.41-.49-3.24-1.41-4.23-5.99-6.46-12.22-12.69-18.21-19.15-1.26-1.36-2.25-3.29-2.68-5.14-3.45-15-6.8-30.03-10.01-45.09-.61-2.85-2-3.98-4.59-4.13-6.99-.4-13.98-.84-20.97-1.31-1.63-.11-3.24-.51-4.87-.57-.53-.02-1.08,.59-1.37,1.6,.89,.15,1.77,.3,2.77,.47,1.12,2.84-1.05,2.99-2.83,3.92,.98,.24,1.95,.48,4.05,1-1.57,1.48-2.62,2.47-3.82,3.6l2.64,.67c1.21,2.98-1.58,2.67-3.56,3.8,1.67,.32,2.61,.5,3.51,.67,1.26,3.02-1.47,2.75-3.53,3.84,1.67,.34,2.6,.52,3.53,.71,1.24,2.96-1.36,2.79-3.62,3.77,1.74,.37,2.66,.56,3.67,.78,.56,1.95,.03,3.33-2.11,2.94-2.05-.37-5.5,1.93-5.81-2.93l3.18-.5c-1.27-1.11-2.43-2.13-3.59-3.14,.17-.3,.34-.59,.52-.89l3.02-.52-3.53-3.12,.49-.87,2.95-.61c-1.22-1.08-2.33-2.05-3.44-3.03,.16-.29,.32-.58,.48-.86,1.01-.22,2.01-.43,3.79-.82-2.04-1.06-4.78-.8-3.55-3.87l2.66-.45c-1.03-1.07-1.96-2.03-2.89-2.99,.95-.65,1.9-1.3,3.68-2.52-1.82-.53-3.23-1.18-4.69-1.33-4.9-.53-9.81-1.12-14.72-1.21-2.94-.06-3.22-1.52-3.05-3.86,.09-1.18,.01-2.37,.01-3.93h43.62c-2.95-5.76-5.62-11.1-8.4-16.37-3.82-7.25-7.79-14.41-11.49-21.72-.52-1.02,.1-2.66,.18-4.02,2.01,.36,4.79-.02,5.89,1.22,4.09,4.59,7.64,9.7,11.35,14.65,6.21,8.29,12.36,16.64,18.63,24.88,.53,.7,1.74,1.18,2.64,1.18,27.87,.06,55.75,.11,83.62-.11,1.52-.01,3.32-2.09,4.48-3.63,9.27-12.28,18.42-24.66,27.6-37,.99-1.34,5.58-2.21,6.5-.99,.51,.68,.54,2.26,.13,3.09-3.03,6.13-6.21,12.17-9.37,18.23-3.49,6.69-6.99,13.37-10.71,20.47Zm-106.57,12.45c6.94,14.46,13.74,28.62,20.55,42.78,.23,.47,.58,.88,.93,1.27,7.54,8.28,15.08,16.57,22.64,24.83,.62,.68,1.34,1.25,2.42,2.24,.76-1.01,1.33-1.93,2.04-2.71,6.79-7.53,13.65-15,20.39-22.58,1.51-1.7,2.91-3.61,3.92-5.67,5.15-10.51,10.18-21.09,15.21-31.66,1.29-2.71,2.45-5.49,3.81-8.55-15.36,1.27-30.23,2.5-45.05,3.73v2.46c1.35,.93,2.34,1.61,3.32,2.29l-2.97,2.54c.86,.61,1.98,1.4,3.1,2.19-1.16,.85-2.31,1.7-3.19,2.34,.97,.66,2.05,1.38,3.14,2.11-1.12,.86-2.24,1.72-3.15,2.42,.94,.62,2.01,1.32,3.09,2.03-1.07,.89-2.13,1.79-3.04,2.55,.83,.53,1.9,1.22,2.98,1.91-1.06,.98-2.12,1.96-3.17,2.92,.12,.05,.42,.13,.68,.27,.87,.5,1.74,1.02,2.6,1.53-.97,.58-1.89,1.43-2.93,1.66-1.29,.29-2.72,.22-4.03-.03-.58-.11-1.27-.98-1.43-1.63-.09-.36,.72-1.18,1.28-1.44,.69-.32,1.54-.29,2.63-.45-1.68-.95-2.83-1.6-3.99-2.25,1.15-.96,2.3-1.93,3.12-2.62-.88-.61-2.01-1.4-3.15-2.2,1.19-.82,2.38-1.64,3.3-2.27-1-.67-2.15-1.45-3.29-2.22l3.33-2.35c-1-.64-2.16-1.39-3.33-2.14,1.16-.85,2.32-1.7,3.39-2.49q-2.54-.99,.27-4.36c-.03-.71-.07-1.62-.13-2.81-15.1-1.22-30.02-2.43-45.32-3.66Zm46.03,321.56c1.01-1.68,1.78-3.01,2.6-4.31,8.25-13.22,16.45-26.48,24.83-39.62,1.28-2.01,1.46-3.44,.1-5.31-5.78-7.96-11.5-15.95-17.25-23.93-3.41-4.74-6.84-9.47-10.29-14.24-2.48,3.44-4.73,6.58-6.99,9.72-6.98,9.67-13.95,19.34-20.93,29.01-.99,1.37-1.04,2.49,.03,4.08,3.44,5.11,6.61,10.41,9.88,15.65,5.95,9.55,11.9,19.12,18.02,28.95Zm.02-162.28c-7.42,10.59-14.71,20.91-21.82,31.35-.55,.8-.28,2.76,.3,3.74,7.04,11.95,14.21,23.82,21.39,35.77,.37-.36,.75-.61,.95-.96,6.87-11.63,13.69-23.29,20.62-34.89,1.09-1.83,.91-3.08-.3-4.78-7.02-9.89-13.92-19.88-21.14-30.23Zm-.04-4c1.09-2.5,2.03-4.68,2.99-6.85,4.46-10.2,8.95-20.38,13.34-30.61,.27-.63,.09-1.81-.33-2.37-1.89-2.51-3.89-4.94-5.94-7.32-3.34-3.86-6.75-7.66-10.15-11.51-.47,.72-.7,1.21-1.04,1.59-4.8,5.45-9.66,10.85-14.37,16.38-.61,.72-.93,2.34-.58,3.2,2.57,6.32,5.34,12.56,8.04,18.82,2.61,6.06,5.22,12.11,8.05,18.67Zm-2.57,169.92h-29.54c3.79,7.67,7.51,15.22,11.53,23.34,6.16-7.99,11.88-15.4,18.01-23.34Zm34.8,.05h-29.47c6.02,7.86,11.84,15.46,17.82,23.26,3.86-7.71,7.66-15.29,11.66-23.26Zm-30.03-3.62h29.58c-5.36-7.43-10.53-14.59-15.83-21.95-4.61,7.37-9.1,14.52-13.75,21.95Zm-18.1-21.95c-5.33,7.42-10.48,14.59-15.75,21.91h29.48c-4.65-7.42-9.08-14.48-13.74-21.91Zm48.45,19.72c-1.09-13.95-2.13-27.17-3.22-41.11-4.32,6.89-8.34,13.29-12.32,19.64,5.12,7.08,10.13,13.99,15.54,21.47Zm-61.16-40.02l-.73-.02c-1.01,12.92-2.02,25.85-3.05,38.97,.58-.23,.83-.24,.93-.38,4.56-6.24,9.15-12.45,13.6-18.77,.43-.62,.33-2.13-.11-2.84-3.47-5.71-7.08-11.32-10.64-16.96Zm-48.51-111.81l-.09,.44h46.11q8.47,0,8.06-8.94c0-.19-.16-.38-.42-.95-17.82,3.14-35.74,6.29-53.65,9.45Zm101.09,.24h53.37l.02-.3c-17.73-3.1-35.46-6.21-53.39-9.34v9.65Zm9.23,160.94l-.64-.08c-3.44,6.82-6.92,13.62-10.26,20.5-.29,.59,.13,1.8,.57,2.47,1.28,1.91,2.72,3.71,4.13,5.51,2.93,3.75,5.89,7.47,9.35,11.86-1.1-14.01-2.13-27.13-3.16-40.26Zm-54.99,21.35c-3.73-7.39-7.27-14.4-10.81-21.42l-.57,.09c-1.01,13.11-2.02,26.21-3.03,39.32l.62,.2c4.59-6.05,9.18-12.1,13.79-18.18Zm9.49-274.77c4.16,6.13,8.12,11.97,12.28,18.1,4.07-5.94,8.09-11.81,12.39-18.1h-24.67Zm24.81,137.78c-3.56,6.03-6.96,11.77-10.42,17.62h22.76c-4.15-5.93-8.13-11.62-12.33-17.62Zm-25.04,0c-4.31,6.23-8.2,11.85-12.2,17.62h22.67c-3.59-6.04-6.94-11.67-10.47-17.62Zm-12.34,21.18c3.26,5.97,6.38,11.67,9.67,17.7,4.35-6.05,8.45-11.75,12.72-17.7h-22.4Zm27.42,.05c4.37,6.05,8.48,11.74,12.68,17.57,3.33-6.03,6.47-11.7,9.7-17.57h-22.39Zm26.25,36.64c-.93-11.94-1.8-23.05-2.72-34.77-3.24,5.85-6.25,11.2-9.14,16.62-.27,.5,0,1.6,.39,2.14,3.6,5.12,7.28,10.18,11.47,16Zm-54.81-34.72c-.94,11.83-1.8,22.74-2.66,33.65,4.13-4.8,7.74-9.67,11.13-14.69,.54-.8,.56-2.54,.1-3.43-2.55-4.93-5.33-9.73-8.57-15.53Zm.59-9l.58,.25c3.53-5.12,7.08-10.23,10.54-15.4,.3-.45,.28-1.45,0-1.94-2.67-4.65-5.44-9.25-8.58-14.56-.9,11.17-1.72,21.41-2.54,31.65Zm48.39-31.84c-3.03,5.21-5.69,9.63-8.16,14.17-.45,.82-.48,2.39-.01,3.15,2.05,3.27,4.36,6.36,6.56,9.53,1.06,1.53,2.1,3.08,3.15,4.62l.79-.39c-.75-10.04-1.51-20.08-2.33-31.07Zm-32.59-57.64c-3.43,6.39-6.57,12.25-9.88,18.41h17.88c-2.65-6.11-5.2-11.96-8-18.41Zm19.25-.03c-2.8,6.46-5.33,12.31-8,18.48h17.83c-3.27-6.15-6.4-12.02-9.83-18.48Zm-29.07,21.31c2.48,4.88,4.82,9.48,7.31,14.36,3.38-4.92,6.52-9.49,9.86-14.36h-17.17Zm38.83,.14h-17.12c3.44,4.9,6.6,9.4,9.9,14.11,2.48-4.84,4.79-9.36,7.22-14.11Zm-.4-7.98l.55-.23c-.74-9.77-1.48-19.54-2.23-29.31-2.41,4.13-4.25,8.35-5.96,12.62-.29,.73-.3,1.87,.04,2.56,2.46,4.83,5.05,9.59,7.6,14.37Zm-36.18-30.67c-.78,10.5-1.5,20.2-2.23,29.89l.78,.17c2.57-4.76,5.16-9.51,7.7-14.28,.2-.38,.26-1.02,.09-1.41-1.98-4.59-4.02-9.14-6.34-14.37Zm19.72-27.35h12.66c-.49-5.36-.97-10.52-1.51-16.43-3.92,5.77-7.4,10.9-11.15,16.43Zm-4.96,.07c-3.78-5.55-7.3-10.69-10.81-15.84l-.67,.11c-.35,5.2-.7,10.4-1.06,15.73h12.54Zm22.91,69.35l-.56-.24c-1.49,2.94-2.62,6.17-4.57,8.73-2.28,2.99-1.62,5.1,.43,7.63,2.23,2.75,4.22,5.71,6.54,8.9-.64-8.73-1.24-16.87-1.83-25.01Zm-42.84,25.2c2.99-4.13,5.53-7.55,7.94-11.07,.47-.69,.87-1.98,.56-2.62-1.97-4.1-4.13-8.1-6.43-12.51-.7,8.84-1.35,17.12-2.07,26.2Zm24.89-91.22c4.72,5.45,9.01,10.39,13.91,16.05-.28-5.42-.44-9.87-.84-14.29-.06-.65-1.3-1.64-2.03-1.68-3.49-.18-6.99-.08-11.04-.08Zm-19.11,16.26c4.63-5.38,9.05-10.53,13.8-16.05h-12.53c-.43,5.36-.83,10.5-1.27,16.05Zm20.16-42.03c.29,.36,.58,.73,.87,1.09,2.49,0,4.98-.09,7.46,.03,1.79,.09,2.45-.93,2.5-2.45,.1-2.95,.03-5.91,.03-7.44-3.27,2.64-7.06,5.7-10.86,8.77Zm-17.67,.84h10.39c-3.49-3.95-6.72-7.6-10.39-11.76v11.76Zm29.55-1.53c3.44-3.63,6.3-6.64,9.34-9.85-2.67-.85-5.39-1.72-8.59-2.75-.24,4.09-.48,7.96-.75,12.6Zm-31.82-12.41c-2.93,.84-5.61,1.61-8.18,2.35,3.04,3.18,5.96,6.24,8.96,9.38-.25-3.79-.5-7.66-.77-11.72Zm34.02-1.64c3.14,.83,6.06,1.59,9.19,2.41-.29-4.27-.53-7.9-.78-11.65-2.88,3.17-5.56,6.11-8.41,9.24Zm-43.63-8.85c-.32,3.96-.61,7.4-.93,11.37,3.44-.95,6.34-1.76,9.25-2.56-2.77-2.93-5.36-5.68-8.32-8.81Zm24.69-46.71v-9.11c-3.54,2.84-6.76,5.42-10.24,8.21,3.58,.31,6.77,.59,10.24,.9Zm-31.68,33.32c-.93,5.17-1.71,9.52-2.54,14.13,7.53-3.21,7.68-3.62,4.4-10.44-.45-.94-.94-1.86-1.86-3.7Zm17.29-34.46v-8.43c-3.68,2.52-7.1,4.87-10.83,7.44,3.79,.35,7.19,.66,10.83,1Zm31.64-8.39v8.44c3.52-.37,6.76-.71,10.62-1.11-3.86-2.66-7.12-4.92-10.62-7.33Zm-4.45,8.62c-3.56-2.87-6.66-5.36-9.96-8.03v8.97c3.24-.31,6.27-.59,9.96-.94Zm21.51,34.43c-1.78,3.65-3.23,6.64-4.7,9.67,2.41,1.55,4.75,3.07,7.26,4.68-.85-4.74-1.64-9.2-2.56-14.35Zm23.63-46.56c-.82-3-1.61-5.87-2.54-9.25-2.32,3.17-4.41,6.02-6.78,9.25h9.33Zm-60.67,3.49h-10v8.1c3.34-2.71,6.41-5.19,10-8.1Zm-49.99-12.65c-.95,3.24-1.79,6.1-2.63,9h9.23c-2.24-3.05-4.25-5.79-6.6-9Zm90.65,66.65c1.25-5.55,2.3-10.25,3.37-15.02-5.16-.06-5.55,.32-4.95,5.02,.39,3.03,.95,6.04,1.58,9.99Zm-73.63-1.69l.53-.04c.72-3.58,1.5-7.15,2.12-10.75,.1-.57-.36-1.69-.78-1.83-1.47-.48-3.03-.65-4.9-1,1.09,4.91,2.06,9.27,3.03,13.62Zm95.15-57.35c2-3.83,3.72-7.14,5.74-11.03-3.13,.65-5.71,1.18-8.46,1.76,.97,3.29,1.78,6.05,2.72,9.28Zm-121.99-11.03c2.1,4,3.78,7.22,5.73,10.94,.99-3.29,1.83-6.07,2.8-9.27l-8.53-1.66Zm67.71,16.02c3.53,2.79,6.54,5.17,9.78,7.73v-7.73h-9.78Zm61.76-26.86l-.66-.27c-2.41,3.27-4.82,6.53-7.39,10.02,7.7,.09,8.09-.3,8.05-7.55,0-.74,0-1.47,0-2.21Zm-37.27,91.97c1.94-1.73,4.07-3.64,6.39-5.71-2.48-1.6-4.66-3-7.16-4.61,.3,3.97,.56,7.41,.77,10.33Zm-93.49-92.4c-1.08,9.21,.98,11.78,7.37,9.76-2.37-3.13-4.75-6.29-7.37-9.76Zm31.49,86.02c1.9,2.47,3.64,4.72,5.72,7.42v-11.23c-2.14,1.43-4.24,2.82-5.72,3.81Zm63.01-58.65h-9.9c3.56,2.46,6.62,4.57,9.9,6.84v-6.84Zm-48.86,0h-9.53v6.51c3.26-2.23,6.2-4.24,9.53-6.51Zm-20.88,6.23c3.56,.34,6.26,.6,9.02,.86v-7.12c-2.93,2.03-5.58,3.88-9.02,6.26Zm80.68,.07c-3.28-2.29-5.9-4.11-8.77-6.11v6.93c2.85-.27,5.43-.51,8.77-.82Zm-93.6-1.41c.07,.28,.13,.56,.2,.84h8.1v-5.99c-2.97,1.84-5.63,3.49-8.3,5.14Zm9.98-4.94v5.94c2.89-2.04,5.43-3.83,8.43-5.94h-8.43Zm88.43,5.59h7.94c-1.15-1.51-2.37-2.36-3.64-3.14-1.36-.83-2.75-1.59-4.31-2.49v5.63Zm27.83-38.72c-6.39,2.21-6.76,2.89-5.7,10.72,2-3.76,3.82-7.18,5.7-10.72Zm-38.17,33.14c3.07,2.05,5.55,3.7,8.17,5.44v-5.44h-8.17Zm-102.35-23.13c.53-7.94,1.08-8.42-4.87-9.05,1.61,2.99,3.16,5.86,4.87,9.05Zm124.91,28.08v-4.93h-7.87c2.88,1.8,5.26,3.29,7.87,4.93Zm-114.54-.12c2.64-1.62,5.06-3.11,7.83-4.82h-7.83v4.82Zm-1.54-5.24c-2.48,1.56-4.65,2.92-7.25,4.56,2.87,.34,5.03,.6,7.25,.87v-5.43Zm124.39,4.79c.04-.18,.09-.35,.13-.53-2.22-1.31-4.44-2.62-6.82-4.01v5.35c1.32-.31,2.37-.66,3.44-.78,1.07-.12,2.16-.03,3.24-.03Zm-105.16,24.78q-1.02,6.91,3.95,8.16c-1.32-2.72-2.56-5.28-3.95-8.16Zm75.19,8.26q5.06-1.43,3.89-7.87c-1.37,2.77-2.55,5.16-3.89,7.87Zm42.22-78.93c-.39-.36-.78-.72-1.16-1.08l-5.91,7.65c.34,.29,.67,.59,1.01,.88l6.07-7.45Zm-154.52-.99c.6,5.05,1.55,6.2,5.82,7.57-2.08-2.71-3.95-5.14-5.82-7.57Zm140.83,42.48l-.1,.58c1.82,1.04,3.64,2.08,5.68,3.25v-3.83h-5.58Zm-133.88,3.76c2.09-1.23,3.87-2.28,6.4-3.78h-6.4v3.78Zm147.28-.16c-2.44-1.44-4.25-2.51-6.22-3.68v3.68h6.22Zm-149.38-3.54c-2.01,1.28-3.53,2.24-5.46,3.47h5.46v-3.47Zm29.68,29.57l1.37-.3c-.68-2.58-1.37-5.15-2.05-7.73l-1.01,.27c.56,2.59,1.13,5.18,1.69,7.77Zm85.92-7.83l-.97-.25-2.09,8.66,1.1,.28c.66-2.9,1.31-5.79,1.97-8.69Z"/><path class="o" d="M648.46,309.57c15.29,1.24,30.21,2.44,45.32,3.66,.05,1.19,.1,2.1,.13,2.81q-2.81,3.38-.27,4.36c-1.07,.78-2.23,1.63-3.39,2.49,1.16,.75,2.33,1.5,3.33,2.14-.98,.69-2.15,1.52-3.33,2.35,1.15,.77,2.29,1.55,3.29,2.22-.92,.63-2.11,1.45-3.3,2.27,1.14,.79,2.27,1.59,3.15,2.2-.83,.69-1.98,1.66-3.12,2.62,1.16,.65,2.32,1.31,3.99,2.25-1.1,.17-1.94,.13-2.63,.45-.56,.26-1.37,1.08-1.28,1.44,.16,.65,.85,1.52,1.43,1.63,1.31,.25,2.74,.31,4.03,.03,1.04-.23,1.96-1.08,2.93-1.66-.87-.51-1.73-1.03-2.6-1.53-.26-.15-.55-.22-.68-.27,1.05-.97,2.11-1.94,3.17-2.92-1.08-.69-2.15-1.38-2.98-1.91,.9-.76,1.97-1.65,3.04-2.55-1.08-.71-2.16-1.42-3.09-2.03,.91-.7,2.03-1.56,3.15-2.42l-3.14-2.11c.88-.65,2.04-1.5,3.19-2.34-1.12-.79-2.24-1.58-3.1-2.19l2.97-2.54c-.99-.68-1.98-1.36-3.32-2.29v-2.46c14.81-1.23,29.69-2.46,45.05-3.73-1.36,3.06-2.52,5.84-3.81,8.55-5.03,10.57-10.06,21.15-15.21,31.66-1.01,2.05-2.41,3.97-3.92,5.67-6.74,7.58-13.6,15.05-20.39,22.58-.71,.79-1.29,1.7-2.04,2.71-1.08-.99-1.8-1.57-2.42-2.24-7.56-8.27-15.1-16.55-22.64-24.83-.35-.39-.71-.8-.93-1.27-6.81-14.16-13.61-28.32-20.55-42.78Z"/><path class="o" d="M694.5,631.13c-6.12-9.83-12.07-19.39-18.02-28.95-3.26-5.24-6.44-10.54-9.88-15.65-1.07-1.6-1.02-2.71-.03-4.08,6.98-9.67,13.95-19.34,20.93-29.01,2.26-3.14,4.52-6.28,6.99-9.72,3.45,4.78,6.87,9.5,10.29,14.24,5.75,7.98,11.47,15.98,17.25,23.93,1.36,1.87,1.18,3.3-.1,5.31-8.38,13.14-16.58,26.4-24.83,39.62-.81,1.3-1.58,2.63-2.6,4.31Z"/><path class="o" d="M694.51,468.85c7.22,10.35,14.11,20.34,21.14,30.23,1.21,1.7,1.39,2.95,.3,4.78-6.92,11.6-13.75,23.26-20.62,34.89-.21,.35-.59,.6-.95,.96-7.17-11.95-14.34-23.82-21.39-35.77-.58-.98-.84-2.94-.3-3.74,7.12-10.44,14.41-20.76,21.82-31.35Z"/><path class="o" d="M694.47,464.85c-2.83-6.56-5.44-12.61-8.05-18.67-2.7-6.26-5.48-12.5-8.04-18.82-.35-.85-.03-2.48,.58-3.2,4.71-5.53,9.57-10.93,14.37-16.38,.34-.38,.57-.87,1.04-1.59,3.41,3.86,6.82,7.65,10.15,11.51,2.05,2.37,4.05,4.8,5.94,7.32,.42,.56,.6,1.74,.33,2.37-4.39,10.23-8.88,20.41-13.34,30.61-.95,2.18-1.9,4.35-2.99,6.85Z"/><path class="o" d="M691.89,634.78c-6.13,7.94-11.85,15.36-18.01,23.34-4.01-8.12-7.74-15.67-11.53-23.34h29.54Z"/><path class="o" d="M726.7,634.82c-3.99,7.97-7.79,15.55-11.66,23.26-5.98-7.81-11.8-15.41-17.82-23.26h29.47Z"/><path class="o" d="M696.67,631.2c4.65-7.42,9.13-14.58,13.75-21.95,5.3,7.35,10.47,14.51,15.83,21.95h-29.58Z"/><path class="o" d="M678.57,609.25c4.66,7.43,9.09,14.49,13.74,21.91h-29.48c5.26-7.32,10.41-14.49,15.75-21.91Z"/><path class="o" d="M727.02,628.97c-5.41-7.48-10.42-14.39-15.54-21.47,3.98-6.34,7.99-12.74,12.32-19.64,1.09,13.94,2.13,27.15,3.22,41.11Z"/><path class="o" d="M665.86,588.95c3.57,5.64,7.18,11.26,10.64,16.96,.43,.71,.54,2.23,.11,2.84-4.45,6.32-9.04,12.54-13.6,18.77-.1,.13-.35,.15-.93,.38,1.03-13.12,2.04-26.05,3.05-38.97l.73,.02Z"/><path class="o" d="M617.35,477.14c17.92-3.16,35.84-6.31,53.65-9.45,.26,.56,.41,.75,.42,.95q.41,8.94-8.06,8.94h-46.11l.09-.44Z"/><path class="o" d="M718.44,477.38v-9.65c17.93,3.14,35.66,6.24,53.39,9.34l-.02,.3h-53.37Z"/><path class="o" d="M727.68,638.33c1.03,13.12,2.06,26.24,3.16,40.26-3.46-4.38-6.42-8.11-9.35-11.86-1.42-1.81-2.86-3.6-4.13-5.51-.44-.67-.86-1.88-.57-2.47,3.34-6.87,6.82-13.68,10.26-20.5l.64,.08Z"/><path class="o" d="M672.69,659.68c-4.62,6.08-9.21,12.13-13.79,18.18l-.62-.2c1.01-13.11,2.02-26.21,3.03-39.32l.57-.09c3.54,7.02,7.09,14.03,10.81,21.42Z"/><path class="o" d="M682.18,384.91h24.67c-4.3,6.29-8.32,12.16-12.39,18.1-4.16-6.13-8.12-11.97-12.28-18.1Z"/><path class="o" d="M706.99,522.69c4.2,6,8.18,11.69,12.33,17.62h-22.76c3.46-5.85,6.86-11.59,10.42-17.62Z"/><path class="o" d="M681.95,522.68c3.54,5.95,6.89,11.58,10.47,17.62h-22.67c3.99-5.77,7.89-11.39,12.2-17.62Z"/><path class="o" d="M669.61,543.86h22.4c-4.27,5.95-8.37,11.64-12.72,17.7-3.29-6.02-6.41-11.72-9.67-17.7Z"/><path class="o" d="M697.03,543.91h22.39c-3.24,5.86-6.37,11.53-9.7,17.57-4.2-5.82-8.32-11.52-12.68-17.57Z"/><path class="o" d="M723.27,580.55c-4.19-5.82-7.87-10.88-11.47-16-.38-.55-.65-1.64-.39-2.14,2.89-5.42,5.9-10.77,9.14-16.62,.92,11.72,1.79,22.83,2.72,34.77Z"/><path class="o" d="M668.47,545.83c3.23,5.79,6.01,10.6,8.57,15.53,.46,.9,.44,2.63-.1,3.43-3.39,5.02-7,9.89-11.13,14.69,.86-10.91,1.73-21.82,2.66-33.65Z"/><path class="o" d="M669.06,536.83c.82-10.24,1.64-20.48,2.54-31.65,3.15,5.31,5.91,9.91,8.58,14.56,.28,.49,.3,1.49,0,1.94-3.46,5.17-7.01,10.27-10.54,15.4l-.58-.25Z"/><path class="o" d="M717.45,504.99c.83,10.99,1.58,21.03,2.33,31.07l-.79,.39c-1.05-1.54-2.09-3.09-3.15-4.62-2.2-3.17-4.51-6.26-6.56-9.53-.47-.75-.43-2.33,.01-3.15,2.46-4.54,5.13-8.96,8.16-14.17Z"/><path class="o" d="M684.86,447.35c2.81,6.45,5.35,12.3,8,18.41h-17.88c3.3-6.16,6.45-12.02,9.88-18.41Z"/><path class="o" d="M704.11,447.32c3.44,6.46,6.56,12.33,9.83,18.48h-17.83c2.67-6.17,5.2-12.02,8-18.48Z"/><path class="o" d="M675.04,468.63h17.17c-3.34,4.87-6.49,9.44-9.86,14.36-2.48-4.88-4.82-9.47-7.31-14.36Z"/><path class="o" d="M713.87,468.78c-2.43,4.74-4.74,9.27-7.22,14.11-3.3-4.71-6.46-9.21-9.9-14.11h17.12Z"/><path class="o" d="M713.46,460.79c-2.55-4.78-5.14-9.54-7.6-14.37-.35-.68-.34-1.82-.04-2.56,1.71-4.28,3.55-8.49,5.96-12.62,.74,9.77,1.48,19.54,2.23,29.31l-.55,.23Z"/><path class="o" d="M677.29,430.12c2.32,5.23,4.36,9.79,6.34,14.37,.17,.38,.11,1.03-.09,1.41-2.54,4.78-5.13,9.53-7.7,14.28l-.78-.17c.72-9.69,1.44-19.39,2.23-29.89Z"/><path class="o" d="M697.01,402.77c3.76-5.53,7.23-10.65,11.15-16.43,.54,5.91,1.02,11.07,1.51,16.43h-12.66Z"/><path class="o" d="M692.05,402.84h-12.54c.36-5.33,.71-10.53,1.06-15.73l.67-.11c3.51,5.15,7.02,10.29,10.81,15.84Z"/><path class="o" d="M714.96,472.2c.6,8.14,1.19,16.28,1.83,25.01-2.32-3.18-4.31-6.14-6.54-8.9-2.05-2.53-2.71-4.64-.43-7.63,1.95-2.56,3.08-5.79,4.57-8.73l.56,.24Z"/><path class="o" d="M672.12,497.4c.72-9.08,1.37-17.36,2.07-26.2,2.3,4.41,4.47,8.41,6.43,12.51,.3,.63-.09,1.93-.56,2.62-2.41,3.52-4.95,6.93-7.94,11.07Z"/><path class="o" d="M697,406.18c4.06,0,7.56-.1,11.04,.08,.73,.04,1.97,1.03,2.03,1.68,.4,4.42,.55,8.87,.84,14.29-4.9-5.65-9.19-10.6-13.91-16.05Z"/><path class="o" d="M677.9,422.44c.44-5.55,.85-10.69,1.27-16.05h12.53c-4.75,5.52-9.18,10.67-13.8,16.05Z"/><path class="o" d="M698.06,380.41c3.8-3.07,7.59-6.13,10.86-8.77,0,1.53,.07,4.49-.03,7.44-.05,1.52-.71,2.54-2.5,2.45-2.48-.13-4.97-.03-7.46-.03-.29-.36-.58-.73-.87-1.09Z"/><path class="o" d="M680.4,381.25v-11.76c3.68,4.16,6.9,7.81,10.39,11.76h-10.39Z"/><path class="o" d="M709.95,379.72c.28-4.63,.51-8.51,.75-12.6,3.2,1.02,5.92,1.89,8.59,2.75-3.04,3.21-5.9,6.22-9.34,9.85Z"/><path class="o" d="M678.13,367.31c.27,4.07,.52,7.93,.77,11.72-2.99-3.13-5.92-6.2-8.96-9.38,2.57-.74,5.26-1.51,8.18-2.35Z"/><path class="o" d="M712.15,365.67c2.85-3.13,5.53-6.07,8.41-9.24,.25,3.75,.5,7.38,.78,11.65-3.13-.82-6.05-1.59-9.19-2.41Z"/><path class="o" d="M668.51,356.82c2.96,3.13,5.55,5.88,8.32,8.81-2.91,.81-5.81,1.61-9.25,2.56,.32-3.97,.61-7.41,.93-11.37Z"/><path class="o" d="M693.2,310.11c-3.47-.3-6.66-.58-10.24-.9,3.48-2.79,6.7-5.37,10.24-8.21v9.11Z"/><path class="o" d="M661.52,343.43c.92,1.83,1.41,2.76,1.86,3.7,3.28,6.81,3.13,7.22-4.4,10.44,.83-4.61,1.61-8.96,2.54-14.13Z"/><path class="o" d="M678.81,308.96c-3.64-.33-7.04-.65-10.83-1,3.73-2.56,7.15-4.91,10.83-7.44v8.43Z"/><path class="o" d="M710.44,300.57c3.49,2.41,6.76,4.66,10.62,7.33-3.86,.4-7.1,.74-10.62,1.11v-8.44Z"/><path class="o" d="M705.99,309.19c-3.7,.35-6.72,.64-9.96,.94v-8.97c3.31,2.66,6.4,5.16,9.96,8.03Z"/><path class="o" d="M727.51,343.62c.92,5.15,1.72,9.61,2.56,14.35-2.51-1.62-4.86-3.13-7.26-4.68,1.47-3.03,2.92-6.02,4.7-9.67Z"/><path class="o" d="M751.14,297.06h-9.33c2.37-3.24,4.46-6.09,6.78-9.25,.93,3.38,1.72,6.26,2.54,9.25Z"/><path class="o" d="M690.47,300.55c-3.59,2.91-6.66,5.4-10,8.1v-8.1h10Z"/><path class="o" d="M640.48,287.9c2.35,3.2,4.36,5.94,6.6,9h-9.23c.85-2.89,1.69-5.76,2.63-9Z"/><path class="o" d="M731.12,354.55c-.63-3.95-1.19-6.96-1.58-9.99-.6-4.7-.21-5.08,4.95-5.02-1.07,4.77-2.12,9.47-3.37,15.02Z"/><path class="o" d="M657.49,352.86c-.97-4.35-1.94-8.7-3.03-13.62,1.87,.35,3.44,.52,4.9,1,.42,.14,.88,1.26,.78,1.83-.62,3.6-1.4,7.17-2.12,10.75l-.53,.04Z"/><path class="o" d="M752.64,295.51c-.95-3.22-1.76-5.99-2.72-9.28,2.76-.57,5.34-1.11,8.46-1.76-2.02,3.89-3.75,7.2-5.74,11.03Z"/><path class="o" d="M630.64,284.47l8.53,1.66c-.97,3.21-1.81,5.98-2.8,9.27-1.94-3.71-3.63-6.93-5.73-10.94Z"/><path class="o" d="M698.35,300.49h9.78v7.73c-3.23-2.56-6.25-4.94-9.78-7.73Z"/><path class="o" d="M760.11,273.63c0,.74,0,1.47,0,2.21,.04,7.25-.35,7.63-8.05,7.55,2.57-3.49,4.98-6.76,7.39-10.02l.66,.27Z"/><path class="o" d="M722.84,365.6c-.22-2.92-.48-6.36-.77-10.33,2.51,1.61,4.68,3.01,7.16,4.61-2.32,2.08-4.45,3.98-6.39,5.71Z"/><path class="o" d="M629.35,273.2c2.62,3.47,5,6.62,7.37,9.76-6.39,2.03-8.45-.54-7.37-9.76Z"/><path class="o" d="M660.84,359.23c1.48-.99,3.58-2.39,5.72-3.81v11.23c-2.08-2.7-3.82-4.95-5.72-7.42Z"/><path class="o" d="M723.85,300.58v6.84c-3.28-2.27-6.34-4.38-9.9-6.84h9.9Z"/><path class="o" d="M675,300.58c-3.33,2.27-6.27,4.28-9.53,6.51v-6.51h9.53Z"/><path class="o" d="M654.11,306.81c3.44-2.39,6.09-4.23,9.02-6.26v7.12c-2.76-.26-5.46-.52-9.02-.86Z"/><path class="o" d="M734.79,306.88c-3.34,.31-5.92,.55-8.77,.82v-6.93c2.86,2,5.48,3.82,8.77,6.11Z"/><path class="o" d="M641.19,305.47c2.66-1.65,5.32-3.3,8.3-5.14v5.99h-8.1c-.07-.28-.13-.56-.2-.84Z"/><path class="o" d="M651.17,300.53h8.43c-3,2.12-5.53,3.9-8.43,5.94v-5.94Z"/><path class="o" d="M739.59,306.12v-5.63c1.55,.89,2.95,1.65,4.31,2.49,1.27,.78,2.49,1.63,3.64,3.14h-7.94Z"/><path class="o" d="M767.43,267.4c-1.89,3.55-3.7,6.96-5.7,10.72-1.06-7.83-.68-8.52,5.7-10.72Z"/><path class="o" d="M729.26,300.54h8.17v5.44c-2.62-1.74-5.1-3.39-8.17-5.44Z"/><path class="o" d="M626.91,277.41c-1.72-3.19-3.26-6.05-4.87-9.05,5.95,.63,5.4,1.1,4.87,9.05Z"/><path class="o" d="M751.82,305.49c-2.61-1.64-4.99-3.12-7.87-4.93h7.87v4.93Z"/><path class="o" d="M637.28,305.37v-4.82h7.83c-2.77,1.7-5.2,3.2-7.83,4.82Z"/><path class="o" d="M635.74,300.13v5.43c-2.22-.27-4.39-.52-7.25-.87,2.61-1.64,4.77-3,7.25-4.56Z"/><path class="o" d="M760.13,304.92c-1.08,0-2.17-.1-3.24,.03-1.08,.13-2.13,.47-3.44,.78v-5.35c2.37,1.4,4.59,2.7,6.82,4.01-.04,.18-.09,.35-.13,.53Z"/><path class="o" d="M654.97,329.7c1.4,2.88,2.64,5.45,3.95,8.16q-4.97-1.25-3.95-8.16Z"/><path class="o" d="M730.16,337.96c1.34-2.71,2.52-5.1,3.89-7.87q1.17,6.44-3.89,7.87Z"/><path class="o" d="M772.38,259.04l-6.07,7.45c-.34-.29-.67-.59-1.01-.88l5.91-7.65c.39,.36,.78,.72,1.16,1.08Z"/><path class="o" d="M617.86,258.04c1.87,2.43,3.74,4.87,5.82,7.57-4.27-1.37-5.21-2.53-5.82-7.57Z"/><path class="o" d="M758.69,300.52h5.58v3.83c-2.04-1.17-3.86-2.21-5.68-3.25l.1-.58Z"/><path class="o" d="M624.81,304.28v-3.78h6.4c-2.54,1.5-4.32,2.55-6.4,3.78Z"/><path class="o" d="M772.09,304.13h-6.22v-3.68c1.97,1.16,3.78,2.23,6.22,3.68Z"/><path class="o" d="M622.71,300.58v3.47h-5.46c1.93-1.23,3.44-2.19,5.46-3.47Z"/><path class="o" d="M652.39,330.15c-.56-2.59-1.13-5.18-1.69-7.77l1.01-.27c.68,2.58,1.37,5.15,2.05,7.73l-1.37,.3Z"/><path class="o" d="M738.32,322.32c-.66,2.9-1.31,5.79-1.97,8.69l-1.1-.28,2.09-8.66,.97,.25Z"/></g><g><rect class="i" x="512.4" y="658.56" width="110.09" height="55.4"/><rect class="i" x="529.35" y="713.92" width="76.2" height="31.78"/><rect class="s" x="561.53" y="669.46" width="11.83" height="34.09"/><rect class="s" x="543.79" y="669.46" width="11.83" height="34.09"/><rect class="s" x="525.59" y="669.46" width="11.83" height="34.09"/><rect class="s" x="580.19" y="669.46" width="11.83" height="34.09"/><rect class="s" x="599.29" y="669.46" width="11.83" height="34.09"/></g><polygon class="p" points="465.28 337.59 264.59 180.18 271.36 170.83 472.05 328.24 465.28 337.59"/><rect class="q" x="186.83" y="523.64" width="2.02" height="166.11"/><rect class="q" x="296.88" y="577.59" width="2.1" height="222.21" transform="translate(-390.77 986.63) rotate(-90)"/><polygon class="q" points="307.51 638.97 305.76 637.92 277.19 689.42 278.94 690.47 307.51 638.97"/><polygon class="q" points="391.66 638.37 389.91 637.32 361.35 688.82 363.1 689.87 391.66 638.37"/><rect class="o" x="259.55" y="689.75" width="139.39" height="10.51"/><path class="t" d="M688.15,633.99h0c-.77-.84-2.05-.87-2.86-.07l-58.38,58.15c-.81,.8-.83,2.13-.06,2.97h0c.77,.84,2.05,.87,2.86,.07l58.38-58.15c.81-.8,.83-2.13,.06-2.97Z"/><path class="f" d="M440.41,4.76c26.16-11.02,64.43-1.68,83.4,26.22,21.93,32.25,13.99,70.64-8.07,92.02-28.85,27.96-69.4,23.55-89.48,8.13,25.92-10.5,42.93-29.2,46.35-58.16,3.44-29.2-9.61-51.22-32.2-68.22Z"/><rect class="r" x="460.28" y="642.16" width="4.21" height="92.21" transform="translate(1150.65 225.89) rotate(90)"/><rect class="o" x="493.49" y="686.26" width="12.62" height="4.01" transform="translate(1188.06 188.47) rotate(90)"/><rect class="o" x="482.8" y="684.16" width="12.62" height="4.01" transform="translate(1175.27 197.06) rotate(90)"/><rect class="n" x="472.11" y="686.26" width="12.62" height="4.01" transform="translate(1166.68 209.85) rotate(90)"/><rect class="o" x="461.42" y="684.16" width="12.62" height="4.01" transform="translate(1153.89 218.44) rotate(90)"/><rect class="o" x="450.73" y="684.16" width="12.62" height="4.01" transform="translate(1143.2 229.13) rotate(90)"/><rect class="o" x="440.04" y="682.06" width="12.62" height="4.01" transform="translate(1130.4 237.72) rotate(90)"/><rect class="o" x="429.35" y="686.26" width="12.62" height="4.01" transform="translate(1123.92 252.61) rotate(90)"/><rect class="o" x="418.65" y="684.16" width="12.62" height="4.01" transform="translate(1111.13 261.2) rotate(90)"/><polygon class="r" points="256.81 396.52 259.91 399.22 349.5 288.08 346.41 285.38 256.81 396.52"/><polygon class="o" points="342.21 303.67 332.93 295.56 336.82 290.73 346.11 298.84 342.21 303.67"/><polygon class="o" points="330.28 315.21 320.99 307.1 324.89 302.26 334.17 310.37 330.28 315.21"/><polygon class="o" points="321.44 329.44 312.15 321.33 316.05 316.5 325.33 324.61 321.44 329.44"/><polygon class="o" points="309.5 340.98 300.22 332.87 304.11 328.04 313.4 336.15 309.5 340.98"/><polygon class="o" points="299.11 353.86 289.83 345.75 293.72 340.92 303.01 349.03 299.11 353.86"/><polygon class="o" points="287.18 365.4 277.89 357.29 281.79 352.46 291.07 360.57 287.18 365.4"/><polygon class="o" points="279.88 380.99 270.6 372.88 274.5 368.05 283.78 376.15 279.88 380.99"/><polygon class="o" points="267.95 392.52 258.66 384.41 262.56 379.58 271.84 387.69 267.95 392.52"/><rect class="k" x="122.77" y="708.88" width="8.84" height="24.54"/><rect class="k" x="102.57" y="708.88" width="8.84" height="24.54"/></g></g></g></svg>