<?xml version="1.0" encoding="UTF-8"?><svg xmlns="http://www.w3.org/2000/svg" viewBox="0 0 798.91 754.14"><defs><style>.d,.e{stroke-width:3px;}.d,.e,.f,.g,.h,.i,.j,.k,.l{stroke-miterlimit:10;}.d,.e,.h,.i,.j,.k,.l,.m{fill:none;}.d,.f,.g,.h,.k,.m{stroke:#010101;}.e,.j{stroke:#9a9999;}.n{fill:#010101;}.o{fill:#fff;}.p,.q{fill:#e52521;}.r{fill:#fdc30b;}.s{fill:#b4b4b4;}.t,.g{fill:#cdcccc;}.f{fill:#ebebeb;stroke-width:.5px;}.h,.i,.j{stroke-width:2px;}.i{stroke:#b4b4b4;}.l{stroke:#e52521;}.u{opacity:.17;}.q{opacity:.26;}.m{stroke-linecap:round;stroke-linejoin:round;stroke-width:6px;}</style></defs><g id="a"/><g id="b"><g id="c"><g><g><polyline class="m" points="330.79 751.14 3 751.14 3 368.24 240.36 180.35 330.79 251.94"/><polyline class="m" points="330.79 251.94 477.72 368.24 477.72 751.14 330.79 751.14"/></g><path class="o" d="M248.9,752.21c1.18,0,2.46,.26,3.5-.07,1.15-.36,2.08-1.27,3.11-1.95-1.05-.65-2.04-1.73-3.17-1.86-2.46-.28-5.01-.27-7.47,0-.96,.11-1.77,1.25-2.65,1.92,.91,.65,1.71,1.59,2.75,1.87,1.21,.33,2.62,.08,3.94,.08Z"/><path d="M248.9,752.21c-1.32,0-2.73,.25-3.94-.08-1.03-.28-1.84-1.22-2.75-1.87,.88-.67,1.69-1.81,2.65-1.92,2.46-.28,5.01-.29,7.47,0,1.13,.13,2.12,1.21,3.17,1.86-1.03,.67-1.96,1.58-3.11,1.95-1.04,.33-2.32,.07-3.5,.07Z"/><g><rect class="e" x="102.45" y="434.08" width="87.42" height="71.88"/><rect class="j" x="136.88" y="506.44" width="13.82" height="10.59"/><rect class="j" x="180.2" y="506.44" width="13.82" height="10.59"/><rect class="j" x="98.18" y="506.44" width="13.82" height="10.59"/><rect class="d" x="84.81" y="433.75" width="126.25" height="72.21"/></g><g><rect class="j" x="124.65" y="675.86" width="11.33" height="8.68"/><rect class="j" x="57.4" y="675.86" width="11.33" height="8.68"/><rect class="j" x="45.33" y="701.97" width="102.68" height="0"/><rect class="d" x="44.93" y="686.94" width="103.51" height="59.2"/></g><g><g><ellipse class="h" cx="319.5" cy="587.9" rx="18.83" ry="19.67"/><ellipse class="g" cx="310.81" cy="589.11" rx="3.39" ry="3.54"/><ellipse class="g" cx="327.61" cy="589.11" rx="3.39" ry="3.54"/><ellipse class="s" cx="319.24" cy="579.19" rx="1.42" ry="1.48"/></g><rect class="k" x="282.78" y="550.88" width="73.73" height="77.03" rx="10" ry="10"/></g><g><g><ellipse class="h" cx="400.7" cy="591.67" rx="21.97" ry="22.95"/><ellipse class="s" cx="387.08" cy="591.86" rx="1.65" ry="1.73"/><ellipse class="s" cx="413.85" cy="591.86" rx="1.65" ry="1.73"/><rect class="n" x="402.44" y="578.23" width="5.22" height="28.18" transform="translate(810.1 1184.63) rotate(180)"/><rect class="n" x="393.74" y="578.23" width="5.22" height="28.18" transform="translate(792.7 1184.63) rotate(180)"/></g><rect class="k" x="363.31" y="553.59" width="73.73" height="77.03" rx="10" ry="10"/></g><g class="u"><path d="M755.03,298.21c9.24,0,17.94,0,26.64,0,4.68,0,9.36,.05,14.04-.02,1.91-.03,3.48,.22,3.06,2.74-.32,1.97,1.52,5.03-2.65,5.17-5.44,.18-10.86,.75-16.28,1.28-1.28,.13-2.52,.79-3.77,1.21,.11,.35,.22,.7,.32,1.05l2.95,.55v2.75c-1.01,.18-1.97,.35-2.92,.53-.03,.19-.05,.38-.08,.57,.97,.26,1.94,.51,4.01,1.05-1.52,1.45-2.57,2.46-3.76,3.6,.7,.18,1.66,.42,2.63,.67,1.24,2.99-1.6,2.64-3.51,3.81,1.61,.32,2.55,.5,3.46,.68,1.25,3.01-1.44,2.77-3.56,3.84l3.55,.73c1.24,2.96-1.33,2.82-3.65,3.78,1.77,.38,2.69,.57,3.71,.78,.56,1.95,.1,3.1-2.11,3.03-1.04-.03-2.13,.19-3.11-.06-.94-.24-1.76-.96-2.64-1.46,.81-.6,1.62-1.19,2.42-1.8,.22-.16,.42-.34,.48-.39-1.01-.93-1.95-1.78-2.89-2.64,.97-.72,1.95-1.43,2.77-2.04-.87-.77-1.82-1.61-2.78-2.46,.95-.74,1.91-1.48,2.74-2.13-.81-.7-1.78-1.53-2.75-2.37l2.65-2.21c-.73-.72-1.68-1.67-2.63-2.61,.93-.66,1.87-1.33,2.94-2.09-.1-.08-.36-.32-.64-.51-.76-.53-1.54-1.05-2.31-1.57,.7-.58,1.43-1.14,2.1-1.76,.43-.39,.79-.87,1.67-1.86-4.6,.23-8.39,.34-12.16,.62-4.92,.36-9.82,.98-14.74,1.21-2.91,.14-4.41,.96-5.1,4.35-3.11,15.14-6.51,30.21-9.98,45.26-.45,1.95-1.66,3.93-3.02,5.4-5.54,6.03-11.14,12.03-17,17.71-2.25,2.18-2.57,4.48-2.3,7.23,.37,3.72,.91,7.42,1.19,11.14,.5,6.86,.76,13.73,1.3,20.59,.73,9.28,1.69,18.55,2.44,27.83,.48,5.96,.78,11.95,1.15,17.88,23.35,4.12,46.33,8.18,69.74,12.31-2.06,2.97-4.92,.89-7.79,2.4,1.12,.59,1.83,.83,2.39,1.29,.61,.49,1.07,1.18,1.68,1.87-1.63,.67-2.65,1.09-3.87,1.6,1.65,1.08,2.72,1.79,3.79,2.49l-.46,.93c-.96,.18-1.93,.37-3.53,.67,1.62,1.24,2.79,2.13,3.96,3.02l-.39,.94h-7.64c-1.96-3.62,3.13-1.38,2.73-3.85-.98-.42-2.04-.78-2.99-1.35-.21-.13-.03-.97-.03-1.27,1.24-.52,2.24-.93,3.49-1.46-1.39-1.59-4.54,0-3.38-3.14l3.11-1.31-.28-.91h-59.2c.23,4.93,.37,9.84,.72,14.73,.24,3.4,.9,6.77,1.14,10.17,.51,7.07,.8,14.16,1.29,21.24,.78,11.02,1.64,22.03,2.49,33.04,.61,7.91,1.25,15.81,1.86,23.72,.85,11.01,1.67,22.02,2.51,33.04,.61,8.02,1.2,16.03,1.88,24.04,.77,9.06,1.67,18.11,2.45,27.18,.45,5.22,.82,10.46,1.1,15.69,.03,.65-.72,1.35-1.23,2.25-12.94-16.96-25.34-33.2-37.95-49.72-2.88,3.66-5.81,7.29-8.64,11-6.11,8.01-12.18,16.06-18.25,24.1-2.91,3.85-5.75,7.76-8.75,11.53-.66,.82-1.84,1.19-2.78,1.77-.17-1.11-.55-2.23-.48-3.32,.2-3.31,.64-6.6,.86-9.91,.46-6.86,.75-13.73,1.29-20.59,.73-9.28,1.68-18.55,2.43-27.83,.51-6.31,.81-12.64,1.3-18.96,.77-9.93,1.64-19.85,2.45-29.78,.25-3.1,.45-6.21,.66-9.32,.63-9.64,1.22-19.29,1.89-28.93,.57-8.13,1.18-16.25,1.87-24.37,.77-9.06,1.66-18.11,2.46-27.17,.1-1.16,.01-2.33,.01-3.64h-59.71c-.07,.88-.13,1.78-.2,2.65q3,.69,3.04,3.39c-.97,.22-1.97,.44-2.98,.67l-.02,.57,2.95,.65c.04,.78,.09,1.61,.15,2.64-1.07,.24-2.08,.47-3.09,.7,0,.19,0,.38-.01,.57,.91,.2,1.83,.39,2.91,.63v3.01c-1.83,0-3.6,.17-5.31-.07-.92-.13-1.74-.97-2.6-1.48,.82-.57,1.62-1.18,2.47-1.69,.33-.2,.76-.19,1.16-.28-1.26-1-2.44-1.93-3.62-2.87,1.19-.71,2.38-1.41,3.35-1.99-1.05-.79-2.2-1.65-3.35-2.52,1-.68,1.99-1.37,3.59-2.46l.18-2.27c-1.3,0-2.42,.05-3.53-.01-1.06-.06-2.12-.25-3.18-.38l-.1-1.3c22.95-4.07,45.91-8.14,69.09-12.26,.44-6.48,.81-13,1.34-19.51,.75-9.17,1.69-18.33,2.44-27.5,.52-6.31,.82-12.64,1.3-18.96,.34-4.48,.94-8.93,1.12-13.41,.06-1.41-.49-3.25-1.41-4.25-5.99-6.49-12.22-12.73-18.21-19.22-1.26-1.36-2.25-3.31-2.68-5.15-3.45-15.06-6.8-30.14-10.01-45.25-.61-2.86-2-3.99-4.59-4.14-6.99-.41-13.98-.84-20.97-1.31-1.63-.11-3.24-.51-4.87-.57-.53-.02-1.08,.6-1.37,1.61,.89,.15,1.77,.3,2.77,.47,1.12,2.85-1.05,3.01-2.83,3.94,.98,.24,1.95,.48,4.05,1.01-1.57,1.49-2.62,2.48-3.82,3.61l2.64,.67c1.21,2.99-1.58,2.68-3.56,3.81,1.67,.32,2.61,.5,3.51,.68,1.26,3.03-1.47,2.76-3.53,3.86,1.67,.34,2.6,.53,3.53,.71,1.24,2.97-1.36,2.8-3.62,3.79,1.74,.37,2.66,.56,3.67,.78,.56,1.96,.03,3.34-2.11,2.95-2.05-.37-5.5,1.94-5.81-2.94l3.18-.5c-1.27-1.12-2.43-2.13-3.59-3.15,.17-.3,.34-.59,.52-.89l3.02-.52-3.53-3.13,.49-.88,2.95-.61c-1.22-1.08-2.33-2.06-3.44-3.04,.16-.29,.32-.58,.48-.87,1.01-.22,2.01-.43,3.79-.82-2.04-1.07-4.78-.8-3.55-3.89l2.66-.45c-1.03-1.07-1.96-2.04-2.89-3,.95-.65,1.9-1.31,3.68-2.53-1.82-.53-3.23-1.18-4.69-1.34-4.9-.53-9.81-1.12-14.72-1.22-2.94-.06-3.22-1.52-3.05-3.87,.09-1.18,.01-2.38,.01-3.94h43.62c-2.95-5.78-5.62-11.14-8.4-16.43-3.82-7.28-7.79-14.47-11.49-21.8-.52-1.03,.1-2.67,.18-4.03,2.01,.36,4.79-.02,5.89,1.22,4.09,4.61,7.64,9.74,11.35,14.71,6.21,8.32,12.36,16.7,18.63,24.97,.53,.7,1.74,1.18,2.64,1.18,27.87,.06,55.75,.11,83.62-.11,1.52-.01,3.32-2.1,4.48-3.64,9.27-12.32,18.42-24.75,27.6-37.14,.99-1.34,5.58-2.21,6.5-.99,.51,.68,.54,2.27,.13,3.1-3.03,6.15-6.21,12.21-9.37,18.29-3.49,6.71-6.99,13.41-10.71,20.54Zm-106.57,12.49c6.94,14.51,13.74,28.73,20.55,42.94,.23,.47,.58,.88,.93,1.27,7.54,8.31,15.08,16.63,22.64,24.92,.62,.68,1.34,1.25,2.42,2.25,.76-1.02,1.33-1.93,2.04-2.72,6.79-7.56,13.65-15.06,20.39-22.66,1.51-1.7,2.91-3.63,3.92-5.69,5.15-10.55,10.18-21.16,15.21-31.77,1.29-2.72,2.45-5.51,3.81-8.59-15.36,1.28-30.23,2.51-45.05,3.74v2.47c1.35,.93,2.34,1.61,3.32,2.29l-2.97,2.55c.86,.61,1.98,1.41,3.1,2.2-1.16,.85-2.31,1.7-3.19,2.35,.97,.66,2.05,1.39,3.14,2.12-1.12,.87-2.24,1.73-3.15,2.43,.94,.62,2.01,1.33,3.09,2.04-1.07,.9-2.13,1.8-3.04,2.56,.83,.53,1.9,1.22,2.98,1.92-1.06,.98-2.12,1.96-3.17,2.93,.12,.05,.42,.13,.68,.27,.87,.5,1.74,1.02,2.6,1.54-.97,.58-1.89,1.43-2.93,1.67-1.29,.29-2.72,.22-4.03-.03-.58-.11-1.27-.98-1.43-1.63-.09-.36,.72-1.18,1.28-1.45,.69-.33,1.54-.29,2.63-.45-1.68-.95-2.83-1.61-3.99-2.26,1.15-.97,2.3-1.93,3.12-2.63-.88-.61-2.01-1.41-3.15-2.2,1.19-.82,2.38-1.65,3.3-2.28-1-.68-2.15-1.45-3.29-2.23l3.33-2.36c-1-.65-2.16-1.4-3.33-2.15,1.16-.85,2.32-1.71,3.39-2.49q-2.54-.99,.27-4.38c-.03-.71-.07-1.62-.13-2.82-15.1-1.23-30.02-2.44-45.32-3.68Zm46.03,322.74c1.01-1.69,1.78-3.02,2.6-4.32,8.25-13.27,16.45-26.58,24.83-39.77,1.28-2.01,1.46-3.45,.1-5.33-5.78-7.98-11.5-16.01-17.25-24.02-3.41-4.75-6.84-9.5-10.29-14.29-2.48,3.45-4.73,6.61-6.99,9.75-6.98,9.71-13.95,19.41-20.93,29.12-.99,1.38-1.04,2.5,.03,4.1,3.44,5.13,6.61,10.45,9.88,15.71,5.95,9.59,11.9,19.19,18.02,29.06Zm.02-162.88c-7.42,10.63-14.71,20.98-21.82,31.46-.55,.8-.28,2.77,.3,3.76,7.04,11.99,14.21,23.91,21.39,35.9,.37-.36,.75-.61,.95-.96,6.87-11.67,13.69-23.38,20.62-35.02,1.09-1.84,.91-3.09-.3-4.8-7.02-9.93-13.92-19.95-21.14-30.34Zm-.04-4.01c1.09-2.51,2.03-4.69,2.99-6.88,4.46-10.23,8.95-20.46,13.34-30.72,.27-.63,.09-1.81-.33-2.38-1.89-2.52-3.89-4.96-5.94-7.34-3.34-3.88-6.75-7.68-10.15-11.55-.47,.73-.7,1.21-1.04,1.6-4.8,5.47-9.66,10.89-14.37,16.44-.61,.72-.93,2.35-.58,3.21,2.57,6.35,5.34,12.6,8.04,18.89,2.61,6.08,5.22,12.16,8.05,18.74Zm-2.57,170.54h-29.54c3.79,7.7,7.51,15.28,11.53,23.43,6.16-8.02,11.88-15.45,18.01-23.43Zm34.8,.05h-29.47c6.02,7.88,11.84,15.51,17.82,23.35,3.86-7.74,7.66-15.35,11.66-23.35Zm-30.03-3.64h29.58c-5.36-7.46-10.53-14.65-15.83-22.03-4.61,7.39-9.1,14.58-13.75,22.03Zm-18.1-22.03c-5.33,7.45-10.48,14.64-15.75,21.99h29.48c-4.65-7.44-9.08-14.54-13.74-21.99Zm48.45,19.79c-1.09-14-2.13-27.27-3.22-41.26-4.32,6.92-8.34,13.34-12.32,19.71,5.12,7.1,10.13,14.04,15.54,21.55Zm-61.16-40.16l-.73-.02c-1.01,12.97-2.02,25.94-3.05,39.11,.58-.23,.83-.24,.93-.38,4.56-6.26,9.15-12.5,13.6-18.84,.43-.62,.33-2.13-.11-2.85-3.47-5.73-7.08-11.36-10.64-17.03Zm-48.51-112.22l-.09,.44h46.11q8.47,0,8.06-8.97c0-.19-.16-.38-.42-.95-17.82,3.15-35.74,6.32-53.65,9.48Zm101.09,.24h53.37l.02-.31c-17.73-3.11-35.46-6.23-53.39-9.38v9.68Zm9.23,161.53l-.64-.08c-3.44,6.85-6.92,13.67-10.26,20.57-.29,.59,.13,1.81,.57,2.48,1.28,1.92,2.72,3.72,4.13,5.53,2.93,3.76,5.89,7.5,9.35,11.9-1.1-14.06-2.13-27.23-3.16-40.4Zm-54.99,21.43c-3.73-7.41-7.27-14.46-10.81-21.5l-.57,.09c-1.01,13.15-2.02,26.31-3.03,39.46l.62,.2c4.59-6.07,9.18-12.14,13.79-18.24Zm9.49-275.77c4.16,6.15,8.12,12.01,12.28,18.16,4.07-5.96,8.09-11.86,12.39-18.16h-24.67Zm24.81,138.28c-3.56,6.05-6.96,11.82-10.42,17.68h22.76c-4.15-5.95-8.13-11.66-12.33-17.68Zm-25.04,0c-4.31,6.25-8.2,11.89-12.2,17.68h22.67c-3.59-6.06-6.94-11.71-10.47-17.68Zm-12.34,21.26c3.26,6,6.38,11.72,9.67,17.76,4.35-6.08,8.45-11.79,12.72-17.76h-22.4Zm27.42,.05c4.37,6.07,8.48,11.79,12.68,17.63,3.33-6.06,6.47-11.75,9.7-17.63h-22.39Zm26.25,36.77c-.93-11.99-1.8-23.13-2.72-34.9-3.24,5.87-6.25,11.24-9.14,16.68-.27,.5,0,1.6,.39,2.15,3.6,5.14,7.28,10.22,11.47,16.06Zm-54.81-34.84c-.94,11.87-1.8,22.82-2.66,33.77,4.13-4.81,7.74-9.7,11.13-14.74,.54-.81,.56-2.55,.1-3.44-2.55-4.95-5.33-9.77-8.57-15.58Zm.59-9.03l.58,.25c3.53-5.14,7.08-10.27,10.54-15.45,.3-.45,.28-1.46,0-1.95-2.67-4.67-5.44-9.29-8.58-14.62-.9,11.21-1.72,21.49-2.54,31.76Zm48.39-31.96c-3.03,5.23-5.69,9.66-8.16,14.22-.45,.82-.48,2.4-.01,3.16,2.05,3.28,4.36,6.39,6.56,9.57,1.06,1.54,2.1,3.09,3.15,4.64l.79-.39c-.75-10.08-1.51-20.15-2.33-31.19Zm-32.59-57.85c-3.43,6.42-6.57,12.3-9.88,18.48h17.88c-2.65-6.13-5.2-12-8-18.48Zm19.25-.03c-2.8,6.49-5.33,12.35-8,18.55h17.83c-3.27-6.17-6.4-12.07-9.83-18.55Zm-29.07,21.39c2.48,4.9,4.82,9.51,7.31,14.41,3.38-4.93,6.52-9.52,9.86-14.41h-17.17Zm38.83,.14h-17.12c3.44,4.92,6.6,9.44,9.9,14.16,2.48-4.86,4.79-9.4,7.22-14.16Zm-.4-8.01l.55-.23c-.74-9.81-1.48-19.61-2.23-29.42-2.41,4.14-4.25,8.38-5.96,12.67-.29,.74-.3,1.88,.04,2.57,2.46,4.85,5.05,9.62,7.6,14.42Zm-36.18-30.78c-.78,10.54-1.5,20.27-2.23,30l.78,.18c2.57-4.77,5.16-9.54,7.7-14.34,.2-.38,.26-1.03,.09-1.41-1.98-4.6-4.02-9.18-6.34-14.43Zm19.72-27.45h12.66c-.49-5.38-.97-10.56-1.51-16.49-3.92,5.79-7.4,10.93-11.15,16.49Zm-4.96,.07c-3.78-5.57-7.3-10.73-10.81-15.9l-.67,.11c-.35,5.22-.7,10.44-1.06,15.79h12.54Zm22.91,69.61l-.56-.25c-1.49,2.95-2.62,6.2-4.57,8.76-2.28,3-1.62,5.12,.43,7.65,2.23,2.76,4.22,5.74,6.54,8.93-.64-8.76-1.24-16.93-1.83-25.1Zm-42.84,25.29c2.99-4.15,5.53-7.58,7.94-11.11,.47-.69,.87-1.99,.56-2.63-1.97-4.12-4.13-8.13-6.43-12.56-.7,8.87-1.35,17.18-2.07,26.29Zm24.89-91.55c4.72,5.47,9.01,10.43,13.91,16.11-.28-5.44-.44-9.9-.84-14.34-.06-.65-1.3-1.65-2.03-1.68-3.49-.18-6.99-.08-11.04-.08Zm-19.11,16.32c4.63-5.4,9.05-10.56,13.8-16.11h-12.53c-.43,5.38-.83,10.54-1.27,16.11Zm20.16-42.18c.29,.37,.58,.73,.87,1.1,2.49,0,4.98-.09,7.46,.03,1.79,.09,2.45-.94,2.5-2.46,.1-2.96,.03-5.93,.03-7.47-3.27,2.65-7.06,5.72-10.86,8.8Zm-17.67,.84h10.39c-3.49-3.97-6.72-7.63-10.39-11.8v11.8Zm29.55-1.54c3.44-3.64,6.3-6.67,9.34-9.89-2.67-.86-5.39-1.73-8.59-2.76-.24,4.1-.48,7.99-.75,12.65Zm-31.82-12.45c-2.93,.84-5.61,1.61-8.18,2.35,3.04,3.19,5.96,6.27,8.96,9.41-.25-3.8-.5-7.69-.77-11.77Zm34.02-1.65c3.14,.83,6.06,1.6,9.19,2.42-.29-4.29-.53-7.93-.78-11.69-2.88,3.18-5.56,6.13-8.41,9.27Zm-43.63-8.89c-.32,3.98-.61,7.43-.93,11.41,3.44-.96,6.34-1.76,9.25-2.57-2.77-2.94-5.36-5.7-8.32-8.84Zm24.69-46.88v-9.14c-3.54,2.85-6.76,5.44-10.24,8.24,3.58,.32,6.77,.6,10.24,.9Zm-31.68,33.44c-.93,5.19-1.71,9.55-2.54,14.18,7.53-3.22,7.68-3.63,4.4-10.47-.45-.94-.94-1.87-1.86-3.71Zm17.29-34.59v-8.46c-3.68,2.53-7.1,4.89-10.83,7.46,3.79,.35,7.19,.66,10.83,1Zm31.64-8.42v8.47c3.52-.37,6.76-.71,10.62-1.12-3.86-2.67-7.12-4.93-10.62-7.35Zm-4.45,8.65c-3.56-2.88-6.66-5.38-9.96-8.06v9c3.24-.31,6.27-.6,9.96-.95Zm21.51,34.56c-1.78,3.67-3.23,6.66-4.7,9.71,2.41,1.56,4.75,3.08,7.26,4.7-.85-4.76-1.64-9.23-2.56-14.4Zm23.63-46.73c-.82-3.01-1.61-5.89-2.54-9.29-2.32,3.18-4.41,6.04-6.78,9.29h9.33Zm-60.67,3.5h-10v8.13c3.34-2.72,6.41-5.21,10-8.13Zm-49.99-12.69c-.95,3.25-1.79,6.12-2.63,9.03h9.23c-2.24-3.06-4.25-5.81-6.6-9.03Zm90.65,66.9c1.25-5.57,2.3-10.29,3.37-15.07-5.16-.06-5.55,.32-4.95,5.04,.39,3.04,.95,6.07,1.58,10.03Zm-73.63-1.7l.53-.04c.72-3.59,1.5-7.18,2.12-10.79,.1-.57-.36-1.7-.78-1.83-1.47-.49-3.03-.65-4.9-1,1.09,4.93,2.06,9.3,3.03,13.67Zm95.15-57.56c2-3.85,3.72-7.17,5.74-11.07-3.13,.65-5.71,1.19-8.46,1.76,.97,3.3,1.78,6.08,2.72,9.31Zm-121.99-11.07c2.1,4.02,3.78,7.25,5.73,10.98,.99-3.3,1.83-6.09,2.8-9.31l-8.53-1.67Zm67.71,16.08c3.53,2.8,6.54,5.19,9.78,7.76v-7.76h-9.78Zm61.76-26.96l-.66-.27c-2.41,3.28-4.82,6.56-7.39,10.06,7.7,.09,8.09-.3,8.05-7.57,0-.74,0-1.48,0-2.22Zm-37.27,92.3c1.94-1.74,4.07-3.65,6.39-5.73-2.48-1.6-4.66-3.01-7.16-4.63,.3,3.98,.56,7.44,.77,10.36Zm-93.49-92.73c-1.08,9.25,.98,11.83,7.37,9.79-2.37-3.15-4.75-6.31-7.37-9.79Zm31.49,86.34c1.9,2.47,3.64,4.74,5.72,7.45v-11.27c-2.14,1.43-4.24,2.83-5.72,3.83Zm63.01-58.87h-9.9c3.56,2.47,6.62,4.59,9.9,6.87v-6.87Zm-48.86,0h-9.53v6.54c3.26-2.24,6.2-4.25,9.53-6.54Zm-20.88,6.26c3.56,.34,6.26,.6,9.02,.86v-7.15c-2.93,2.04-5.58,3.89-9.02,6.29Zm80.68,.07c-3.28-2.3-5.9-4.13-8.77-6.13v6.96c2.85-.27,5.43-.51,8.77-.82Zm-93.6-1.42c.07,.28,.13,.56,.2,.85h8.1v-6.01c-2.97,1.85-5.63,3.51-8.3,5.16Zm9.98-4.96v5.97c2.89-2.05,5.43-3.84,8.43-5.97h-8.43Zm88.43,5.61h7.94c-1.15-1.52-2.37-2.37-3.64-3.15-1.36-.84-2.75-1.6-4.31-2.5v5.65Zm27.83-38.87c-6.39,2.22-6.76,2.91-5.7,10.76,2-3.78,3.82-7.21,5.7-10.76Zm-38.17,33.26c3.07,2.05,5.55,3.71,8.17,5.46v-5.46h-8.17Zm-102.35-23.21c.53-7.97,1.08-8.45-4.87-9.08,1.61,3.01,3.16,5.88,4.87,9.08Zm124.91,28.18v-4.95h-7.87c2.88,1.81,5.26,3.31,7.87,4.95Zm-114.54-.12c2.64-1.63,5.06-3.13,7.83-4.83h-7.83v4.83Zm-1.54-5.26c-2.48,1.57-4.65,2.94-7.25,4.58,2.87,.34,5.03,.6,7.25,.87v-5.45Zm124.39,4.81c.04-.18,.09-.35,.13-.53-2.22-1.31-4.44-2.62-6.82-4.03v5.37c1.32-.31,2.37-.66,3.44-.79,1.07-.13,2.16-.03,3.24-.03Zm-105.16,24.87q-1.02,6.94,3.95,8.19c-1.32-2.73-2.56-5.3-3.95-8.19Zm75.19,8.29q5.06-1.44,3.89-7.9c-1.37,2.78-2.55,5.18-3.89,7.9Zm42.22-79.22c-.39-.36-.78-.72-1.16-1.09l-5.91,7.68c.34,.29,.67,.59,1.01,.88l6.07-7.47Zm-154.52-1c.6,5.06,1.55,6.22,5.82,7.6-2.08-2.72-3.95-5.16-5.82-7.6Zm140.83,42.63l-.1,.58c1.82,1.04,3.64,2.09,5.68,3.26v-3.84h-5.58Zm-133.88,3.78c2.09-1.24,3.87-2.29,6.4-3.8h-6.4v3.8Zm147.28-.16c-2.44-1.45-4.25-2.52-6.22-3.69v3.69h6.22Zm-149.38-3.56c-2.01,1.28-3.53,2.25-5.46,3.48h5.46v-3.48Zm29.68,29.68l1.37-.3c-.68-2.59-1.37-5.17-2.05-7.76l-1.01,.27c.56,2.6,1.13,5.2,1.69,7.79Zm85.92-7.86l-.97-.25-2.09,8.69,1.1,.28c.66-2.91,1.31-5.81,1.97-8.72Z"/><path class="o" d="M648.46,310.7c15.29,1.24,30.21,2.45,45.32,3.68,.05,1.2,.1,2.11,.13,2.82q-2.81,3.39-.27,4.38c-1.07,.79-2.23,1.64-3.39,2.49,1.16,.75,2.33,1.5,3.33,2.15-.98,.69-2.15,1.53-3.33,2.36,1.15,.78,2.29,1.55,3.29,2.23-.92,.64-2.11,1.46-3.3,2.28,1.14,.8,2.27,1.59,3.15,2.2-.83,.7-1.98,1.66-3.12,2.63,1.16,.66,2.32,1.31,3.99,2.26-1.1,.17-1.94,.13-2.63,.45-.56,.26-1.37,1.08-1.28,1.45,.16,.65,.85,1.52,1.43,1.63,1.31,.25,2.74,.31,4.03,.03,1.04-.23,1.96-1.09,2.93-1.67-.87-.51-1.73-1.04-2.6-1.54-.26-.15-.55-.22-.68-.27,1.05-.97,2.11-1.95,3.17-2.93-1.08-.69-2.15-1.38-2.98-1.92,.9-.76,1.97-1.66,3.04-2.56-1.08-.71-2.16-1.42-3.09-2.04,.91-.7,2.03-1.57,3.15-2.43l-3.14-2.12c.88-.65,2.04-1.5,3.19-2.35-1.12-.79-2.24-1.59-3.1-2.2l2.97-2.55c-.99-.68-1.98-1.36-3.32-2.29v-2.47c14.81-1.23,29.69-2.47,45.05-3.74-1.36,3.08-2.52,5.86-3.81,8.59-5.03,10.61-10.06,21.23-15.21,31.77-1.01,2.06-2.41,3.98-3.92,5.69-6.74,7.61-13.6,15.11-20.39,22.66-.71,.79-1.29,1.7-2.04,2.72-1.08-1-1.8-1.57-2.42-2.25-7.56-8.3-15.1-16.61-22.64-24.92-.35-.39-.71-.8-.93-1.27-6.81-14.21-13.61-28.43-20.55-42.94Z"/><path class="o" d="M694.5,633.44c-6.12-9.87-12.07-19.47-18.02-29.06-3.26-5.26-6.44-10.58-9.88-15.71-1.07-1.6-1.02-2.72-.03-4.1,6.98-9.71,13.95-19.41,20.93-29.12,2.26-3.15,4.52-6.3,6.99-9.75,3.45,4.79,6.87,9.54,10.29,14.29,5.75,8.01,11.47,16.04,17.25,24.02,1.36,1.88,1.18,3.32-.1,5.33-8.38,13.19-16.58,26.49-24.83,39.77-.81,1.3-1.58,2.63-2.6,4.32Z"/><path class="o" d="M694.51,470.57c7.22,10.39,14.11,20.41,21.14,30.34,1.21,1.71,1.39,2.96,.3,4.8-6.92,11.64-13.75,23.34-20.62,35.02-.21,.35-.59,.6-.95,.96-7.17-11.99-14.34-23.9-21.39-35.9-.58-.99-.84-2.95-.3-3.76,7.12-10.48,14.41-20.83,21.82-31.46Z"/><path class="o" d="M694.47,466.55c-2.83-6.58-5.44-12.66-8.05-18.74-2.7-6.29-5.48-12.54-8.04-18.89-.35-.86-.03-2.49,.58-3.21,4.71-5.55,9.57-10.97,14.37-16.44,.34-.39,.57-.87,1.04-1.6,3.41,3.87,6.82,7.68,10.15,11.55,2.05,2.38,4.05,4.82,5.94,7.34,.42,.56,.6,1.74,.33,2.38-4.39,10.27-8.88,20.49-13.34,30.72-.95,2.18-1.9,4.37-2.99,6.88Z"/><path class="o" d="M691.89,637.1c-6.13,7.97-11.85,15.41-18.01,23.43-4.01-8.15-7.74-15.73-11.53-23.43h29.54Z"/><path class="o" d="M726.7,637.14c-3.99,8-7.79,15.61-11.66,23.35-5.98-7.84-11.8-15.46-17.82-23.35h29.47Z"/><path class="o" d="M696.67,633.51c4.65-7.45,9.13-14.63,13.75-22.03,5.3,7.38,10.47,14.57,15.83,22.03h-29.58Z"/><path class="o" d="M678.57,611.48c4.66,7.45,9.09,14.55,13.74,21.99h-29.48c5.26-7.35,10.41-14.54,15.75-21.99Z"/><path class="o" d="M727.02,631.27c-5.41-7.51-10.42-14.45-15.54-21.55,3.98-6.37,7.99-12.79,12.32-19.71,1.09,13.99,2.13,27.25,3.22,41.26Z"/><path class="o" d="M665.86,591.11c3.57,5.66,7.18,11.3,10.64,17.03,.43,.72,.54,2.23,.11,2.85-4.45,6.35-9.04,12.58-13.6,18.84-.1,.14-.35,.15-.93,.38,1.03-13.17,2.04-26.14,3.05-39.11l.73,.02Z"/><path class="o" d="M617.35,478.89c17.92-3.17,35.84-6.33,53.65-9.48,.26,.57,.41,.75,.42,.95q.41,8.97-8.06,8.97h-46.11l.09-.44Z"/><path class="o" d="M718.44,479.13v-9.68c17.93,3.15,35.66,6.26,53.39,9.38l-.02,.31h-53.37Z"/><path class="o" d="M727.68,640.66c1.03,13.17,2.06,26.34,3.16,40.4-3.46-4.4-6.42-8.14-9.35-11.9-1.42-1.81-2.86-3.62-4.13-5.53-.44-.67-.86-1.89-.57-2.48,3.34-6.9,6.82-13.73,10.26-20.57l.64,.08Z"/><path class="o" d="M672.69,662.09c-4.62,6.1-9.21,12.17-13.79,18.24l-.62-.2c1.01-13.15,2.02-26.31,3.03-39.46l.57-.09c3.54,7.04,7.09,14.09,10.81,21.5Z"/><path class="o" d="M682.18,386.32h24.67c-4.3,6.31-8.32,12.2-12.39,18.16-4.16-6.15-8.12-12.01-12.28-18.16Z"/><path class="o" d="M706.99,524.6c4.2,6.02,8.18,11.73,12.33,17.68h-22.76c3.46-5.87,6.86-11.64,10.42-17.68Z"/><path class="o" d="M681.95,524.59c3.54,5.97,6.89,11.62,10.47,17.68h-22.67c3.99-5.79,7.89-11.43,12.2-17.68Z"/><path class="o" d="M669.61,545.85h22.4c-4.27,5.97-8.37,11.69-12.72,17.76-3.29-6.05-6.41-11.77-9.67-17.76Z"/><path class="o" d="M697.03,545.9h22.39c-3.24,5.88-6.37,11.57-9.7,17.63-4.2-5.84-8.32-11.56-12.68-17.63Z"/><path class="o" d="M723.27,582.67c-4.19-5.84-7.87-10.92-11.47-16.06-.38-.55-.65-1.65-.39-2.15,2.89-5.44,5.9-10.81,9.14-16.68,.92,11.77,1.79,22.91,2.72,34.9Z"/><path class="o" d="M668.47,547.83c3.23,5.81,6.01,10.63,8.57,15.58,.46,.9,.44,2.64-.1,3.44-3.39,5.04-7,9.93-11.13,14.74,.86-10.95,1.73-21.9,2.66-33.77Z"/><path class="o" d="M669.06,538.8c.82-10.28,1.64-20.56,2.54-31.76,3.15,5.33,5.91,9.94,8.58,14.62,.28,.49,.3,1.5,0,1.95-3.46,5.19-7.01,10.31-10.54,15.45l-.58-.25Z"/><path class="o" d="M717.45,506.84c.83,11.03,1.58,21.11,2.33,31.19l-.79,.39c-1.05-1.55-2.09-3.1-3.15-4.64-2.2-3.18-4.51-6.28-6.56-9.57-.47-.76-.43-2.34,.01-3.16,2.46-4.55,5.13-8.99,8.16-14.22Z"/><path class="o" d="M684.86,448.99c2.81,6.48,5.35,12.35,8,18.48h-17.88c3.3-6.18,6.45-12.06,9.88-18.48Z"/><path class="o" d="M704.11,448.96c3.44,6.48,6.56,12.38,9.83,18.55h-17.83c2.67-6.19,5.2-12.06,8-18.55Z"/><path class="o" d="M675.04,470.35h17.17c-3.34,4.88-6.49,9.48-9.86,14.41-2.48-4.9-4.82-9.51-7.31-14.41Z"/><path class="o" d="M713.87,470.49c-2.43,4.76-4.74,9.31-7.22,14.16-3.3-4.72-6.46-9.24-9.9-14.16h17.12Z"/><path class="o" d="M713.46,462.48c-2.55-4.8-5.14-9.57-7.6-14.42-.35-.69-.34-1.83-.04-2.57,1.71-4.29,3.55-8.52,5.96-12.67,.74,9.81,1.48,19.61,2.23,29.42l-.55,.23Z"/><path class="o" d="M677.29,431.69c2.32,5.25,4.36,9.82,6.34,14.43,.17,.39,.11,1.03-.09,1.41-2.54,4.79-5.13,9.56-7.7,14.34l-.78-.18c.72-9.73,1.44-19.46,2.23-30Z"/><path class="o" d="M697.01,404.24c3.76-5.55,7.23-10.69,11.15-16.49,.54,5.93,1.02,11.11,1.51,16.49h-12.66Z"/><path class="o" d="M692.05,404.31h-12.54c.36-5.35,.71-10.57,1.06-15.79l.67-.11c3.51,5.17,7.02,10.33,10.81,15.9Z"/><path class="o" d="M714.96,473.92c.6,8.17,1.19,16.34,1.83,25.1-2.32-3.19-4.31-6.17-6.54-8.93-2.05-2.54-2.71-4.65-.43-7.65,1.95-2.57,3.08-5.82,4.57-8.76l.56,.25Z"/><path class="o" d="M672.12,499.22c.72-9.11,1.37-17.42,2.07-26.29,2.3,4.43,4.47,8.44,6.43,12.56,.3,.64-.09,1.93-.56,2.63-2.41,3.53-4.95,6.96-7.94,11.11Z"/><path class="o" d="M697,407.66c4.06,0,7.56-.1,11.04,.08,.73,.04,1.97,1.04,2.03,1.68,.4,4.44,.55,8.9,.84,14.34-4.9-5.68-9.19-10.64-13.91-16.11Z"/><path class="o" d="M677.9,423.99c.44-5.57,.85-10.73,1.27-16.11h12.53c-4.75,5.54-9.18,10.71-13.8,16.11Z"/><path class="o" d="M698.06,381.8c3.8-3.08,7.59-6.15,10.86-8.8,0,1.54,.07,4.51-.03,7.47-.05,1.53-.71,2.55-2.5,2.46-2.48-.13-4.97-.03-7.46-.03-.29-.37-.58-.73-.87-1.1Z"/><path class="o" d="M680.4,382.64v-11.8c3.68,4.17,6.9,7.83,10.39,11.8h-10.39Z"/><path class="o" d="M709.95,381.11c.28-4.65,.51-8.54,.75-12.65,3.2,1.03,5.92,1.9,8.59,2.76-3.04,3.22-5.9,6.25-9.34,9.89Z"/><path class="o" d="M678.13,368.66c.27,4.08,.52,7.96,.77,11.77-2.99-3.14-5.92-6.22-8.96-9.41,2.57-.74,5.26-1.51,8.18-2.35Z"/><path class="o" d="M712.15,367.01c2.85-3.14,5.53-6.09,8.41-9.27,.25,3.76,.5,7.41,.78,11.69-3.13-.83-6.05-1.59-9.19-2.42Z"/><path class="o" d="M668.51,358.12c2.96,3.14,5.55,5.9,8.32,8.84-2.91,.81-5.81,1.62-9.25,2.57,.32-3.98,.61-7.44,.93-11.41Z"/><path class="o" d="M693.2,311.24c-3.47-.31-6.66-.59-10.24-.9,3.48-2.8,6.7-5.39,10.24-8.24v9.14Z"/><path class="o" d="M661.52,344.68c.92,1.84,1.41,2.77,1.86,3.71,3.28,6.84,3.13,7.25-4.4,10.47,.83-4.63,1.61-9,2.54-14.18Z"/><path class="o" d="M678.81,310.09c-3.64-.34-7.04-.65-10.83-1,3.73-2.57,7.15-4.93,10.83-7.46v8.46Z"/><path class="o" d="M710.44,301.67c3.49,2.42,6.76,4.68,10.62,7.35-3.86,.41-7.1,.75-10.62,1.12v-8.47Z"/><path class="o" d="M705.99,310.32c-3.7,.35-6.72,.64-9.96,.95v-9c3.31,2.67,6.4,5.17,9.96,8.06Z"/><path class="o" d="M727.51,344.88c.92,5.17,1.72,9.65,2.56,14.4-2.51-1.62-4.86-3.14-7.26-4.7,1.47-3.04,2.92-6.04,4.7-9.71Z"/><path class="o" d="M751.14,298.14h-9.33c2.37-3.25,4.46-6.11,6.78-9.29,.93,3.4,1.72,6.28,2.54,9.29Z"/><path class="o" d="M690.47,301.64c-3.59,2.92-6.66,5.42-10,8.13v-8.13h10Z"/><path class="o" d="M640.48,288.95c2.35,3.22,4.36,5.96,6.6,9.03h-9.23c.85-2.9,1.69-5.78,2.63-9.03Z"/><path class="o" d="M731.12,355.85c-.63-3.96-1.19-6.98-1.58-10.03-.6-4.72-.21-5.1,4.95-5.04-1.07,4.78-2.12,9.5-3.37,15.07Z"/><path class="o" d="M657.49,354.15c-.97-4.37-1.94-8.74-3.03-13.67,1.87,.35,3.44,.52,4.9,1,.42,.14,.88,1.26,.78,1.83-.62,3.61-1.4,7.2-2.12,10.79l-.53,.04Z"/><path class="o" d="M752.64,296.59c-.95-3.24-1.76-6.01-2.72-9.31,2.76-.57,5.34-1.11,8.46-1.76-2.02,3.9-3.75,7.23-5.74,11.07Z"/><path class="o" d="M630.64,285.51l8.53,1.67c-.97,3.22-1.81,6-2.8,9.31-1.94-3.73-3.63-6.96-5.73-10.98Z"/><path class="o" d="M698.35,301.59h9.78v7.76c-3.23-2.56-6.25-4.96-9.78-7.76Z"/><path class="o" d="M760.11,274.63c0,.74,0,1.48,0,2.22,.04,7.27-.35,7.66-8.05,7.57,2.57-3.5,4.98-6.78,7.39-10.06l.66,.27Z"/><path class="o" d="M722.84,366.94c-.22-2.93-.48-6.38-.77-10.36,2.51,1.62,4.68,3.03,7.16,4.63-2.32,2.08-4.45,3.99-6.39,5.73Z"/><path class="o" d="M629.35,274.2c2.62,3.48,5,6.65,7.37,9.79-6.39,2.03-8.45-.55-7.37-9.79Z"/><path class="o" d="M660.84,360.54c1.48-.99,3.58-2.4,5.72-3.83v11.27c-2.08-2.71-3.82-4.97-5.72-7.45Z"/><path class="o" d="M723.85,301.68v6.87c-3.28-2.28-6.34-4.39-9.9-6.87h9.9Z"/><path class="o" d="M675,301.68c-3.33,2.28-6.27,4.3-9.53,6.54v-6.54h9.53Z"/><path class="o" d="M654.11,307.93c3.44-2.4,6.09-4.25,9.02-6.29v7.15c-2.76-.26-5.46-.52-9.02-.86Z"/><path class="o" d="M734.79,308c-3.34,.31-5.92,.56-8.77,.82v-6.96c2.86,2,5.48,3.84,8.77,6.13Z"/><path class="o" d="M641.19,306.59c2.66-1.66,5.32-3.31,8.3-5.16v6.01h-8.1c-.07-.28-.13-.56-.2-.85Z"/><path class="o" d="M651.17,301.63h8.43c-3,2.12-5.53,3.92-8.43,5.97v-5.97Z"/><path class="o" d="M739.59,307.24v-5.65c1.55,.9,2.95,1.66,4.31,2.5,1.27,.78,2.49,1.64,3.64,3.15h-7.94Z"/><path class="o" d="M767.43,268.38c-1.89,3.56-3.7,6.99-5.7,10.76-1.06-7.86-.68-8.55,5.7-10.76Z"/><path class="o" d="M729.26,301.64h8.17v5.46c-2.62-1.75-5.1-3.41-8.17-5.46Z"/><path class="o" d="M626.91,278.43c-1.72-3.2-3.26-6.07-4.87-9.08,5.95,.63,5.4,1.11,4.87,9.08Z"/><path class="o" d="M751.82,306.61c-2.61-1.64-4.99-3.14-7.87-4.95h7.87v4.95Z"/><path class="o" d="M637.28,306.49v-4.83h7.83c-2.77,1.71-5.2,3.21-7.83,4.83Z"/><path class="o" d="M635.74,301.23v5.45c-2.22-.27-4.39-.53-7.25-.87,2.61-1.65,4.77-3.01,7.25-4.58Z"/><path class="o" d="M760.13,306.03c-1.08,0-2.17-.1-3.24,.03-1.08,.13-2.13,.47-3.44,.79v-5.37c2.37,1.4,4.59,2.71,6.82,4.03-.04,.18-.09,.35-.13,.53Z"/><path class="o" d="M654.97,330.91c1.4,2.89,2.64,5.47,3.95,8.19q-4.97-1.26-3.95-8.19Z"/><path class="o" d="M730.16,339.2c1.34-2.72,2.52-5.12,3.89-7.9q1.17,6.46-3.89,7.9Z"/><path class="o" d="M772.38,259.98l-6.07,7.47c-.34-.29-.67-.59-1.01-.88l5.91-7.68c.39,.36,.78,.72,1.16,1.09Z"/><path class="o" d="M617.86,258.99c1.87,2.44,3.74,4.88,5.82,7.6-4.27-1.38-5.21-2.54-5.82-7.6Z"/><path class="o" d="M758.69,301.62h5.58v3.84c-2.04-1.17-3.86-2.22-5.68-3.26l.1-.58Z"/><path class="o" d="M624.81,305.4v-3.8h6.4c-2.54,1.5-4.32,2.56-6.4,3.8Z"/><path class="o" d="M772.09,305.24h-6.22v-3.69c1.97,1.17,3.78,2.24,6.22,3.69Z"/><path class="o" d="M622.71,301.68v3.48h-5.46c1.93-1.23,3.44-2.2,5.46-3.48Z"/><path class="o" d="M652.39,331.36c-.56-2.6-1.13-5.2-1.69-7.79l1.01-.27c.68,2.59,1.37,5.17,2.05,7.76l-1.37,.3Z"/><path class="o" d="M738.32,323.5c-.66,2.91-1.31,5.81-1.97,8.72l-1.1-.28,2.09-8.69,.97,.25Z"/></g><g><rect class="i" x="512.4" y="660.97" width="110.09" height="55.61"/><rect class="i" x="529.35" y="716.53" width="76.2" height="31.89"/><rect class="t" x="561.53" y="671.9" width="11.83" height="34.22"/><rect class="t" x="543.79" y="671.9" width="11.83" height="34.22"/><rect class="t" x="525.59" y="671.9" width="11.83" height="34.22"/><rect class="t" x="580.19" y="671.9" width="11.83" height="34.22"/><rect class="t" x="599.29" y="671.9" width="11.83" height="34.22"/></g><polygon class="p" points="465.28 338.83 264.59 180.84 271.36 171.45 472.05 329.44 465.28 338.83"/><rect class="r" x="186.83" y="525.55" width="2.02" height="166.72"/><rect class="r" x="296.88" y="580.11" width="2.11" height="222.21" transform="translate(-393.28 989.15) rotate(-90)"/><polygon class="r" points="307.51 641.3 305.76 640.25 277.19 691.94 278.94 693 307.51 641.3"/><polygon class="r" points="391.66 640.7 389.91 639.65 361.35 691.34 363.1 692.39 391.66 640.7"/><rect class="o" x="259.55" y="692.27" width="139.39" height="10.55"/><path class="q" d="M688.86,637.08l-1.42-1.55c-.38-.41-1.01-.43-1.41-.03l-59.86,59.85c-.4,.4-.41,1.05-.03,1.47l1.42,1.55c.38,.41,1.01,.43,1.41,.03l59.86-59.85c.4-.4,.41-1.05,.03-1.47Z"/><path class="f" d="M440.41,4.78c26.16-11.06,64.43-1.69,83.4,26.32,21.93,32.36,13.99,70.9-8.07,92.36-28.85,28.07-69.4,23.64-89.48,8.16,25.92-10.54,42.93-29.31,46.35-58.37,3.44-29.31-9.61-51.41-32.2-68.47Z"/><polygon class="s" points="256.81 397.97 259.91 400.68 349.5 289.14 346.41 286.42 256.81 397.97"/><polygon class="o" points="342.21 304.78 332.93 296.64 336.82 291.79 346.11 299.93 342.21 304.78"/><polygon class="o" points="330.28 316.36 320.99 308.22 324.89 303.37 334.17 311.51 330.28 316.36"/><polygon class="o" points="321.44 330.65 312.15 322.51 316.05 317.66 325.33 325.8 321.44 330.65"/><polygon class="o" points="309.5 342.22 300.22 334.09 304.11 329.24 313.4 337.37 309.5 342.22"/><polygon class="o" points="299.11 355.16 289.83 347.02 293.72 342.17 303.01 350.31 299.11 355.16"/><polygon class="o" points="287.18 366.73 277.89 358.6 281.79 353.75 291.07 361.88 287.18 366.73"/><polygon class="o" points="279.88 382.38 270.6 374.24 274.5 369.39 283.78 377.53 279.88 382.38"/><polygon class="o" points="267.95 393.96 258.66 385.82 262.56 380.97 271.84 389.11 267.95 393.96"/><rect class="s" x="102.77" y="523.94" width="4.04" height="145.61"/><rect class="o" x="98.73" y="534.49" width="12.12" height="6.33"/><rect class="o" x="96.71" y="551.38" width="12.12" height="6.33"/><rect class="o" x="98.73" y="568.26" width="12.12" height="6.33"/><rect class="o" x="96.71" y="585.14" width="12.12" height="6.33"/><rect class="o" x="96.71" y="602.03" width="12.12" height="6.33"/><rect class="o" x="94.69" y="618.91" width="12.12" height="6.33"/><rect class="o" x="98.73" y="635.79" width="12.12" height="6.33"/><rect class="o" x="96.71" y="652.67" width="12.12" height="6.33"/><rect class="p" x="462.25" y="648.24" width="4.22" height="84.84" rx="1" ry="1" transform="translate(-226.3 1155.02) rotate(-90)"/><g><path class="p" d="M421.9,681.7l-10.12,7.16c-.35,.25-.45,.75-.21,1.12l.9,1.38c.24,.37,.72,.47,1.08,.22l10.12-7.16c.35-.25,.45-.75,.21-1.12l-.9-1.38c-.24-.37-.72-.47-1.08-.22Z"/><path class="p" d="M411.82,690.34l8.5,9.17c.3,.32,.79,.33,1.1,.02l1.15-1.16c.31-.31,.32-.82,.02-1.14l-8.5-9.17c-.3-.32-.79-.33-1.1-.02l-1.15,1.16c-.31,.31-.32,.82-.02,1.14Z"/></g><rect class="l" x="125.03" y="710.13" width="8.84" height="24.63"/></g></g></g></svg>